<?xml version="1.0" encoding="utf-8"?>
<!-- Generator: Adobe Illustrator 15.0.0, SVG Export Plug-In . SVG Version: 6.00 Build 0)  -->
<!DOCTYPE svg PUBLIC "-//W3C//DTD SVG 1.1//EN" "http://www.w3.org/Graphics/SVG/1.1/DTD/svg11.dtd">
<svg version="1.1" id="Layer_1" xmlns="http://www.w3.org/2000/svg" xmlns:xlink="http://www.w3.org/1999/xlink" x="0px" y="0px"
	 width="80px" height="80px" viewBox="0 0 80 80" enable-background="new 0 0 80 80" xml:space="preserve">
<path fill="#AFAFAF" d="M56.419,43.141c-1.46-2.162-3.554-3.71-6.269-4.65c1.969-0.939,3.463-2.32,4.479-4.142
	c1.02-1.821,1.527-3.87,1.527-6.133c0-2.953-0.859-5.522-2.568-7.706c-1.709-2.184-3.678-3.553-5.904-4.084
	c-1.121-0.272-2.523-0.476-4.211-0.611v-4.277h-4.81v4.085c-0.339-0.011-0.69-0.011-1.041-0.011h-3.439v-4.07h-4.811v4.069h-7.987
	v6.11h5.998v36.596h-5.998v6.107h7.987v4.068h4.811v-4.068h3.791c0.238,0,0.464,0,0.69-0.011v4.085h4.811V64.23
	c1.231-0.08,2.317-0.215,3.258-0.373c2.14-0.375,4.106-1.1,5.908-2.174c1.811-1.074,3.246-2.604,4.332-4.562
	c1.098-1.97,1.643-4.151,1.643-6.562C58.613,47.779,57.879,45.301,56.419,43.141z M34.75,21.719h3.915h0.679
	c1.573,0,2.941,0.147,4.131,0.43c3.541,0.871,5.309,3.043,5.309,6.518c0,2.388-0.69,4.187-2.082,5.42
	c-0.76,0.667-1.834,1.154-3.227,1.459c-1.154,0.249-2.535,0.385-4.131,0.385h-0.679H34.75V21.719z M49.607,55.213
	c-1.064,1.336-2.436,2.195-4.119,2.559c-0.566,0.123-1.234,0.228-2.016,0.293c-1.303,0.147-2.896,0.215-4.81,0.238
	c-0.362,0.012-0.747,0.012-1.143,0.012h-2.77V41.963h3.915h0.294c1.743,0,3.248,0.079,4.516,0.227
	c0.871,0.104,1.629,0.248,2.273,0.418c1.607,0.441,2.92,1.304,3.938,2.604c1.008,1.302,1.519,2.908,1.519,4.82
	C51.202,52.136,50.67,53.867,49.607,55.213z"/>
</svg>
