<?xml version="1.0" encoding="utf-8"?>
<!-- Generator: Adobe Illustrator 15.0.0, SVG Export Plug-In . SVG Version: 6.00 Build 0)  -->
<!DOCTYPE svg PUBLIC "-//W3C//DTD SVG 1.1//EN" "http://www.w3.org/Graphics/SVG/1.1/DTD/svg11.dtd">
<svg version="1.1" id="Layer_1" xmlns="http://www.w3.org/2000/svg" xmlns:xlink="http://www.w3.org/1999/xlink" x="0px" y="0px"
	 width="80px" height="80px" viewBox="0 0 80 80" enable-background="new 0 0 80 80" xml:space="preserve">
<path fill="#AFAFAF" d="M58.62,42.811c-1.89-2.179-4.41-3.489-7.57-3.929v-0.14c2.521-0.79,4.591-2.19,6.21-4.21
	c1.62-2.02,2.432-4.37,2.432-7.06c0-3.71-1.33-6.58-3.989-8.63c-2.67-2.03-6.479-3.06-11.438-3.06H28.09v11.44h-9.55v8.49h9.55
	v8.961h-9.55v8.489h9.55v12.5h17.07c5.04,0,9.02-1.34,11.93-4.021c2.91-2.68,4.37-6.299,4.37-10.869
	C61.46,47.641,60.51,44.991,58.62,42.811z M38.1,24.061h3.75c4.871,0,7.312,1.83,7.312,5.5c0,1.97-0.602,3.51-1.78,4.64
	c-1.188,1.12-2.819,1.69-4.88,1.69h-4.4L38.1,24.061L38.1,24.061z M48.96,55.57c-1.31,1.211-3.13,1.811-5.44,1.811H38.1V44.23h5.48
	c2.32,0,4.12,0.568,5.41,1.711c1.289,1.129,1.939,2.699,1.939,4.688C50.93,52.721,50.27,54.371,48.96,55.57z"/>
</svg>
