<?xml version="1.0" encoding="utf-8"?>
<!-- Generator: Adobe Illustrator 15.0.0, SVG Export Plug-In . SVG Version: 6.00 Build 0)  -->
<!DOCTYPE svg PUBLIC "-//W3C//DTD SVG 1.1//EN" "http://www.w3.org/Graphics/SVG/1.1/DTD/svg11.dtd">
<svg version="1.1" id="Layer_1" xmlns="http://www.w3.org/2000/svg" xmlns:xlink="http://www.w3.org/1999/xlink" x="0px" y="0px"
	 width="80px" height="80px" viewBox="0 0 80 80" enable-background="new 0 0 80 80" xml:space="preserve">
<path fill="#AFAFAF" d="M61.541,50.898c3.42,5.898,1.29,13.49-4.779,16.721c-5.301,2.811-12.08,1.199-15.511-3.721
	c-3.229-4.619-2.771-10.539,0.53-14.569c0.77-0.95,0.85-2.29,0.229-3.341v-0.01c-0.52-0.891-1.46-1.449-2.49-1.479l-1.08-0.069
	c-1.229-0.041-2.378,0.68-2.838,1.819c-1.189,2.931-3.52,5.42-6.819,6.719c-4.74,1.853-10.29,0.451-13.54-3.459
	c-5.301-6.351-2.931-15.811,4.609-18.951c4.74-1.98,10.34-0.61,13.7,3.26c1.05,1.2,1.78,2.52,2.26,3.89
	c0.41,1.17,1.48,1.98,2.721,2.02l0.76,0.06c1.147,0.04,2.21-0.58,2.75-1.59l0.812-1.56c0.58-1.1,0.408-2.44-0.41-3.37
	c-0.949-1.09-1.729-2.38-2.26-3.88c-1.701-4.84-0.121-10.39,3.938-13.53c6.47-4.99,15.858-2.37,18.76,5.37
	c1.78,4.76,0.261,10.28-3.698,13.48c-2.762,2.23-6.08,3.02-9.211,2.6c-1.221-0.16-2.41,0.48-2.99,1.57l-0.971,1.851
	c-0.479,0.91-0.46,2,0.062,2.891v0.01c0.619,1.061,1.84,1.641,3.06,1.439C53.932,44.27,58.939,46.439,61.541,50.898z"/>
</svg>
