<?xml version="1.0" encoding="utf-8"?>
<!-- Generator: Adobe Illustrator 15.0.0, SVG Export Plug-In . SVG Version: 6.00 Build 0)  -->
<!DOCTYPE svg PUBLIC "-//W3C//DTD SVG 1.1//EN" "http://www.w3.org/Graphics/SVG/1.1/DTD/svg11.dtd">
<svg version="1.1" id="Layer_1" xmlns="http://www.w3.org/2000/svg" xmlns:xlink="http://www.w3.org/1999/xlink" x="0px" y="0px"
	 width="80px" height="80px" viewBox="0 0 80 80" enable-background="new 0 0 80 80" xml:space="preserve">
<g id="XMLID_916_">
	<g id="XMLID_927_">
		<path fill="#444444" d="M40,65.214c-13.021,0-23.615-10.593-23.615-23.614S26.979,17.985,40,17.985S63.615,28.578,63.615,41.6
			S53.021,65.214,40,65.214z M40,19.905c-11.963,0-21.695,9.732-21.695,21.695c0,11.963,9.732,21.695,21.695,21.695
			c11.962,0,21.695-9.732,21.695-21.695C61.695,29.637,51.963,19.905,40,19.905z"/>
	</g>
	<g id="XMLID_926_">
		<path fill="#444444" d="M27.352,48.479c-0.361,0-0.707-0.204-0.87-0.553c-0.932-1.986-1.404-4.115-1.404-6.326
			c0-8.228,6.694-14.922,14.922-14.922c3.759,0,7.35,1.402,10.113,3.949c0.39,0.359,0.414,0.966,0.055,1.356
			c-0.359,0.391-0.968,0.414-1.356,0.055c-2.406-2.219-5.535-3.44-8.811-3.44c-7.17,0-13.003,5.833-13.003,13.002
			c0,1.928,0.412,3.781,1.223,5.512c0.225,0.48,0.019,1.051-0.461,1.276C27.627,48.449,27.488,48.479,27.352,48.479z"/>
	</g>
	<g id="XMLID_925_">
		<path fill="#444444" d="M40,56.521c-3.631,0-7.131-1.319-9.855-3.716c-0.398-0.351-0.437-0.957-0.086-1.355
			c0.35-0.397,0.957-0.437,1.354-0.086c2.373,2.088,5.423,3.237,8.587,3.237c7.169,0,13.002-5.832,13.002-13.002
			c0-1.445-0.235-2.863-0.698-4.214c-0.171-0.501,0.096-1.047,0.598-1.219c0.505-0.172,1.047,0.096,1.219,0.597
			c0.532,1.551,0.801,3.179,0.801,4.836C54.922,49.827,48.228,56.521,40,56.521z"/>
	</g>
	<g id="XMLID_924_">
		<path fill="#444444" d="M25.864,54.509c-0.209,0-0.419-0.068-0.596-0.208c-0.415-0.329-0.484-0.933-0.155-1.349l7.222-9.095
			c0.314-0.395,0.879-0.48,1.296-0.193l2.792,1.922l4.069-5.628c0.15-0.208,0.378-0.347,0.632-0.386
			c0.253-0.04,0.513,0.025,0.719,0.179l2.887,2.146l9.484-12.427c0.32-0.422,0.924-0.503,1.346-0.181
			c0.422,0.321,0.502,0.924,0.181,1.345l-10.06,13.182c-0.319,0.416-0.916,0.502-1.337,0.188l-2.866-2.133L37.43,47.47
			c-0.306,0.423-0.893,0.524-1.322,0.228l-2.826-1.943l-6.665,8.393C26.427,54.385,26.147,54.509,25.864,54.509z"/>
	</g>
	<g id="XMLID_921_">
		<g id="XMLID_923_">
			<path fill="#3F9FFF" d="M30.913,42.727c0.909-1.143,2.547-1.389,3.75-0.56l1.329,0.915l3.029-4.189
				c0.436-0.603,1.094-1.004,1.828-1.118c0.734-0.11,1.483,0.074,2.081,0.517l1.431,1.065l4.28-5.68
				c-2.148-2.34-5.221-3.817-8.639-3.817c-6.474,0-11.741,5.267-11.741,11.74c0,1.295,0.219,2.537,0.608,3.703L30.913,42.727z"/>
		</g>
		<g id="XMLID_922_">
			<path fill="#3F9FFF" d="M47.135,44.904c-0.919,1.22-2.651,1.469-3.876,0.558l-1.388-1.032l-2.969,4.105
				c-0.884,1.223-2.583,1.515-3.825,0.66l-1.427-0.982l-1.593,2.006c2.093,1.931,4.879,3.121,7.944,3.121
				c6.473,0,11.741-5.266,11.741-11.74c0-0.844-0.094-1.665-0.264-2.458L47.135,44.904z"/>
		</g>
	</g>
	<g id="XMLID_920_">
		<path fill="#444444" d="M54.978,31.012c-0.023,0-0.047-0.001-0.072-0.002l-2.601-0.193c-0.528-0.039-0.926-0.5-0.887-1.028
			c0.04-0.528,0.476-0.931,1.029-0.886l2.601,0.193c0.529,0.039,0.926,0.5,0.886,1.028C55.897,30.627,55.476,31.012,54.978,31.012z"
			/>
	</g>
	<g id="XMLID_919_">
		<path fill="#444444" d="M55.549,33.947c-0.449,0-0.852-0.318-0.94-0.776l-0.573-2.936c-0.102-0.52,0.237-1.024,0.758-1.125
			c0.525-0.102,1.024,0.238,1.126,0.758l0.573,2.936c0.102,0.52-0.238,1.024-0.759,1.126C55.671,33.942,55.609,33.947,55.549,33.947
			z"/>
	</g>
	<g id="XMLID_918_">
		<path fill="#444444" d="M39.712,65.218c-2.838,0-23.106-0.813-39.524-23.048c-0.25-0.339-0.25-0.801,0-1.141
			C17.793,17.188,39.823,17.97,40.047,17.986c0.529,0.026,0.937,0.475,0.912,1.005c-0.025,0.528-0.483,0.945-1.004,0.913
			C39.752,19.889,19.046,19.208,2.157,41.6c16.926,22.444,37.585,21.698,37.797,21.696c0.532-0.047,0.979,0.383,1.005,0.912
			s-0.383,0.979-0.912,1.005C40.032,65.214,39.918,65.218,39.712,65.218z"/>
	</g>
	<g id="XMLID_917_">
		<path fill="#444444" d="M40.289,65.218c-0.206,0-0.32-0.004-0.334-0.005c-0.529-0.025-0.937-0.475-0.912-1.004
			c0.026-0.529,0.479-0.902,1.004-0.914c0.201,0.016,20.911,0.692,37.796-21.695C60.914,19.151,40.258,19.891,40.047,19.903
			c-0.531,0.028-0.979-0.383-1.005-0.912c-0.026-0.529,0.382-0.98,0.912-1.006c0.208-0.011,22.252-0.801,39.858,23.043
			c0.25,0.34,0.25,0.802,0,1.141C63.396,64.403,43.128,65.218,40.289,65.218z"/>
	</g>
</g>
</svg>
