<?xml version="1.0" encoding="utf-8"?>
<!-- Generator: Adobe Illustrator 15.0.0, SVG Export Plug-In . SVG Version: 6.00 Build 0)  -->
<!DOCTYPE svg PUBLIC "-//W3C//DTD SVG 1.1//EN" "http://www.w3.org/Graphics/SVG/1.1/DTD/svg11.dtd">
<svg version="1.1" id="Layer_1" xmlns="http://www.w3.org/2000/svg" xmlns:xlink="http://www.w3.org/1999/xlink" x="0px" y="0px"
	 width="80px" height="80px" viewBox="0 0 80 80" enable-background="new 0 0 80 80" xml:space="preserve">
<g id="XMLID_955_">
	<g id="XMLID_491_">
		<rect x="30.524" y="4.643" fill="#444444" width="11.582" height="2.122"/>
	</g>
	<g id="XMLID_490_">
		<path fill="#444444" d="M42.662,80H11.687C8.551,80,6,77.449,6,74.313V5.687C6,2.551,8.551,0,11.687,0h49.257
			c3.136,0,5.687,2.551,5.687,5.687v21.999c0,0.586-0.475,1.061-1.061,1.061s-1.061-0.475-1.061-1.061V5.687
			c0-1.966-1.6-3.565-3.565-3.565H11.687c-1.966,0-3.565,1.599-3.565,3.565v68.627c0,1.966,1.599,3.565,3.565,3.565h30.976
			c0.586,0,1.061,0.475,1.061,1.061S43.248,80,42.662,80z"/>
	</g>
	<g id="XMLID_489_">
		<rect x="30.524" y="73.236" fill="#444444" width="11.582" height="2.121"/>
	</g>
	<g id="XMLID_488_">
		<path fill="#444444" d="M65.569,11.407H7.061C6.475,11.407,6,10.932,6,10.346s0.475-1.061,1.061-1.061h58.509
			c0.586,0,1.061,0.475,1.061,1.061S66.155,11.407,65.569,11.407z"/>
	</g>
	<g id="XMLID_487_">
		<path fill="#444444" d="M42.105,70.715H7.061C6.475,70.715,6,70.239,6,69.653s0.475-1.061,1.061-1.061h35.045
			c0.586,0,1.061,0.475,1.061,1.061S42.691,70.715,42.105,70.715z"/>
	</g>
	<g id="XMLID_486_">
		<path fill="#3F9FFF" d="M19.26,24.774h-3.619c-1.207,0-2.185-0.978-2.185-2.185v-3.619c0-1.207,0.978-2.185,2.185-2.185h3.619
			c1.206,0,2.184,0.978,2.184,2.185v3.619C21.444,23.796,20.466,24.774,19.26,24.774z"/>
	</g>
	<g id="XMLID_485_">
		<path fill="#3F9FFF" d="M31.64,24.774h-3.619c-1.206,0-2.185-0.978-2.185-2.185v-3.619c0-1.207,0.979-2.185,2.185-2.185h3.619
			c1.207,0,2.185,0.978,2.185,2.185v3.619C33.825,23.796,32.847,24.774,31.64,24.774z"/>
	</g>
	<g id="XMLID_484_">
		<path fill="#3F9FFF" d="M44.021,24.774h-3.618c-1.207,0-2.185-0.978-2.185-2.185v-3.619c0-1.207,0.978-2.185,2.185-2.185h3.618
			c1.206,0,2.185,0.978,2.185,2.185v3.619C46.205,23.796,45.227,24.774,44.021,24.774z"/>
	</g>
	<g id="XMLID_483_">
		<path fill="#3F9FFF" d="M19.26,37.691h-3.619c-1.207,0-2.185-0.978-2.185-2.185v-3.618c0-1.207,0.978-2.185,2.185-2.185h3.619
			c1.206,0,2.184,0.978,2.184,2.185v3.618C21.444,36.713,20.466,37.691,19.26,37.691z"/>
	</g>
	<g id="XMLID_482_">
		<path fill="#3F9FFF" d="M31.64,37.691h-3.619c-1.206,0-2.185-0.978-2.185-2.185v-3.618c0-1.207,0.979-2.185,2.185-2.185h3.619
			c1.207,0,2.185,0.978,2.185,2.185v3.618C33.825,36.713,32.847,37.691,31.64,37.691z"/>
	</g>
	<g id="XMLID_481_">
		<path fill="#3F9FFF" d="M19.26,50.608h-3.619c-1.207,0-2.185-0.978-2.185-2.185v-3.619c0-1.206,0.978-2.184,2.185-2.184h3.619
			c1.206,0,2.184,0.978,2.184,2.184v3.619C21.444,49.631,20.466,50.608,19.26,50.608z"/>
	</g>
	<g id="XMLID_480_">
		<path fill="#3F9FFF" d="M31.64,50.608h-3.619c-1.206,0-2.185-0.978-2.185-2.185v-3.619c0-1.206,0.979-2.184,2.185-2.184h3.619
			c1.207,0,2.185,0.978,2.185,2.184v3.619C33.825,49.631,32.847,50.608,31.64,50.608z"/>
	</g>
	<g id="XMLID_958_">
		<g id="XMLID_963_">
			<path fill="#444444" d="M57.693,40.578c-0.586,0-1.061-0.475-1.061-1.061v-7.706c0-0.586,0.475-1.061,1.061-1.061h3.017
				c2.248,0,4.078,1.829,4.078,4.078c0,0.586-0.476,1.061-1.061,1.061c-0.586,0-1.062-0.475-1.062-1.061
				c0-1.079-0.877-1.957-1.956-1.957h-1.956v6.645C58.754,40.104,58.279,40.578,57.693,40.578z"/>
		</g>
		<g id="XMLID_962_">
			<path fill="#444444" d="M72.088,66.659H59.127c-0.586,0-1.061-0.475-1.061-1.061s0.475-1.061,1.061-1.061h12.11
				c0.143-0.593,0.367-1.445,0.678-2.41c1.71-5.31,2.651-10.871,2.798-16.531c0.016-0.577,0.487-1.034,1.061-1.034
				c0.01,0,0.019,0,0.027,0c0.586,0.017,1.049,0.504,1.034,1.089c-0.152,5.863-1.128,11.625-2.9,17.127
				c-0.538,1.672-0.804,3.011-0.806,3.023C73.031,66.3,72.595,66.659,72.088,66.659z"/>
		</g>
		<g id="XMLID_961_">
			<path fill="#444444" d="M52.73,66.659c-0.506,0-0.953-0.362-1.044-0.876c-0.01-0.055-0.983-5.38-4.435-9.238
				c-0.953-1.064-1.857-2.31-2.689-3.699c-1.938-3.236-2.961-6.985-2.961-10.842c0-2.557,2.081-4.637,4.639-4.637
				c1.904,0,3.645,1.196,4.329,2.973l0.028,0.076V23.797c0-2.249,1.83-4.078,4.078-4.078s4.078,1.83,4.078,4.078v8.015
				c0,0.586-0.475,1.061-1.061,1.061s-1.061-0.475-1.061-1.061v-8.015c0-1.079-0.878-1.957-1.957-1.957s-1.956,0.877-1.956,1.957
				v22.337c0,0.511-0.365,0.949-0.867,1.043c-0.502,0.09-1-0.185-1.184-0.663l-2.08-5.412c-0.372-0.965-1.315-1.613-2.349-1.613
				c-1.389,0-2.518,1.129-2.518,2.516c0,3.473,0.92,6.846,2.66,9.753c0.762,1.274,1.587,2.409,2.45,3.374
				c3.865,4.32,4.9,10.044,4.943,10.286c0.1,0.576-0.285,1.125-0.862,1.226C52.853,66.654,52.791,66.659,52.73,66.659z"/>
		</g>
		<g id="XMLID_960_">
			<path fill="#444444" d="M69.761,45.449c-0.586,0-1.061-0.475-1.061-1.061v-7.306c0-1.079-0.878-1.957-1.956-1.957h-1.956v6.646
				c0,0.586-0.476,1.061-1.061,1.061c-0.586,0-1.062-0.475-1.062-1.061v-7.706c0-0.586,0.476-1.061,1.062-1.061h3.017
				c2.248,0,4.077,1.83,4.077,4.078v7.306C70.821,44.975,70.347,45.449,69.761,45.449z"/>
		</g>
		<g id="XMLID_959_">
			<path fill="#444444" d="M75.796,46.686c-0.586,0-1.062-0.475-1.062-1.061v-4.689c0-1.078-0.877-1.956-1.956-1.956h-3.018
				c-0.586,0-1.061-0.476-1.061-1.061c0-0.586,0.475-1.061,1.061-1.061h3.018c2.248,0,4.078,1.83,4.078,4.078v4.689
				C76.856,46.211,76.381,46.686,75.796,46.686z"/>
		</g>
	</g>
	<g id="XMLID_957_">
		<path fill="#444444" d="M73.756,80H50.361c-0.586,0-1.062-0.475-1.062-1.061v-9.286c0-0.586,0.476-1.061,1.062-1.061h23.395
			c0.586,0,1.061,0.475,1.061,1.061v9.286C74.816,79.525,74.342,80,73.756,80z M51.422,77.879h21.273v-7.164H51.422V77.879z"/>
	</g>
	<g id="XMLID_956_">
		<path fill="#444444" d="M68.556,76.231c-1.067,0-1.935-0.868-1.935-1.935c0-1.067,0.867-1.935,1.935-1.935
			c1.066,0,1.935,0.867,1.935,1.935C70.49,75.363,69.622,76.231,68.556,76.231z M68.556,74.109c-0.104,0-0.188,0.084-0.188,0.188
			c0,0.205,0.375,0.207,0.374,0C68.742,74.193,68.658,74.109,68.556,74.109z"/>
	</g>
</g>
</svg>
