<?xml version="1.0" encoding="utf-8"?>
<!-- Generator: Adobe Illustrator 15.0.0, SVG Export Plug-In . SVG Version: 6.00 Build 0)  -->
<!DOCTYPE svg PUBLIC "-//W3C//DTD SVG 1.1//EN" "http://www.w3.org/Graphics/SVG/1.1/DTD/svg11.dtd">
<svg version="1.1" id="Layer_1" xmlns="http://www.w3.org/2000/svg" xmlns:xlink="http://www.w3.org/1999/xlink" x="0px" y="0px"
	 width="80px" height="80px" viewBox="0 0 80 80" enable-background="new 0 0 80 80" xml:space="preserve">
<g id="XMLID_1043_">
	<g id="XMLID_1053_">
		<path fill="#3F9FFF" d="M51.233,55.704c-13.654,0-20.589-4.762-20.612-14.156c-0.01-4.242,1.469-8.575,4.164-12.2l8.555-11.505
			h15.787l8.555,11.505c2.695,3.625,4.174,7.958,4.163,12.2C71.822,50.942,64.887,55.704,51.233,55.704z"/>
	</g>
	<g id="XMLID_1051_">
		<path fill="#FFFFFF" d="M49.564,46.835c-0.613-0.035-1.154-0.166-1.599-0.28c-0.452-0.116-0.89-0.237-1.332-0.445l0.022-2.466
			c0.771,0.287,1.088,0.388,1.871,0.567c0.877,0.2,1.488,0.258,2.085,0.258c1.041,0,1.877-0.284,2.509-0.854
			s0.948-1.294,0.948-2.176c0-0.551-0.092-1.04-0.273-1.468c-0.184-0.427-0.433-0.771-0.748-1.034
			c-0.316-0.262-1.034-0.656-2.155-1.181l-1.574-0.733c-1.335-0.624-2.267-1.362-2.797-2.216c-0.529-0.854-0.793-1.881-0.793-3.083
			c0-1.237,0.389-2.314,1.167-3.229c0.778-0.917,1.566-1.304,2.663-1.632l0.016-2.239h2.548l-0.011,2.099
			c1.214,0.03,2.16,0.417,2.863,0.817l0.001,2.489c-0.354-0.258-0.898-0.507-1.627-0.747c-0.729-0.241-1.405-0.361-2.028-0.361
			c-0.908,0-1.621,0.258-2.143,0.773c-0.521,0.517-0.78,1.179-0.78,1.989c0,0.498,0.094,0.951,0.28,1.361
			c0.187,0.409,0.454,0.756,0.801,1.041c0.348,0.286,1.022,0.667,2.028,1.147l1.228,0.574c1.389,0.65,2.401,1.444,3.043,2.382
			c0.641,0.938,0.961,2.143,0.961,3.61c0,1.212-0.429,2.271-1.289,3.184c-0.857,0.911-1.775,1.416-3.297,1.674l-0.004,2.267h-2.574
			L49.564,46.835z"/>
	</g>
	<g id="XMLID_1050_">
		<path fill="#444444" d="M34.429,56.423c-5.303-3.092-8.114-8.231-8.13-14.864c-0.011-5.17,1.77-10.423,5.018-14.79l9.852-13.249
			h20.131l9.851,13.249c3.248,4.367,5.03,9.619,5.019,14.79c-0.015,5.863-2.238,10.615-6.432,13.743l-1.472-1.974
			c3.599-2.684,5.429-6.646,5.441-11.775c0.011-4.643-1.599-9.371-4.531-13.315l-9.112-12.256H42.404l-9.113,12.256
			c-2.932,3.944-4.541,8.672-4.531,13.315c0.014,5.792,2.338,10.08,6.908,12.743L34.429,56.423z"/>
	</g>
	<g id="XMLID_248_">
		<path fill="#444444" d="M61.215,15.981H41.252c-1.487,0-2.697-1.21-2.697-2.697V12.41c0-1.488,1.21-2.698,2.697-2.698h19.963
			c1.487,0,2.697,1.21,2.697,2.698v0.875C63.912,14.771,62.702,15.981,61.215,15.981z M41.252,12.173
			c-0.128,0-0.235,0.108-0.235,0.237v0.875c0,0.128,0.107,0.235,0.235,0.235h19.963c0.128,0,0.235-0.107,0.235-0.235V12.41
			c0-0.128-0.107-0.237-0.235-0.237H41.252z"/>
	</g>
	<g id="XMLID_1048_">
		<path fill="#444444" d="M60.425,12.173H42.259l-7.604-7.37l3.163-3.162C38.877,0.583,40.284,0,41.781,0
			c1.496,0,2.904,0.583,3.963,1.642l0.969,0.968c1.246-1.214,2.887-1.88,4.628-1.88c1.743,0,3.383,0.667,4.629,1.881l0.969-0.969
			C57.997,0.583,59.404,0,60.901,0s2.905,0.583,3.964,1.642l3.161,3.162L60.425,12.173z M43.257,9.711h16.17l5.092-4.936
			l-1.394-1.394c-1.188-1.188-3.258-1.188-4.446,0L55.97,6.091l-1.679-1.68c-0.787-0.788-1.836-1.221-2.95-1.221
			s-2.161,0.434-2.95,1.222l-1.677,1.68l-2.71-2.71c-1.188-1.188-3.257-1.187-4.445,0l-1.396,1.394L43.257,9.711z"/>
	</g>
	<g id="XMLID_1047_">
		<path fill="#444444" d="M46.387,66.441h-3.309v-2.462h3.309c2.925,0,5.749-0.867,8.166-2.509l2.133-1.447
			c-0.211-0.241-0.464-0.448-0.758-0.619c-0.763-0.444-1.773-0.439-2.702,0.014c-4.949,2.417-9.343,0.438-9.526,0.353l-0.139-0.075
			c-1.312-0.823-2.646-1.516-3.966-2.058c-5.033-2.064-10.988-1.332-15.54,1.91l-1.428-2.006c5.314-3.783,12.005-4.599,17.901-2.181
			c1.424,0.584,2.857,1.324,4.263,2.201c0.487,0.202,3.718,1.42,7.354-0.356c1.672-0.815,3.549-0.788,5.021,0.071
			c0.733,0.427,1.336,0.989,1.789,1.673c0.635,0.95,0.366,2.26-0.603,2.917l-2.418,1.64C53.108,65.427,49.806,66.441,46.387,66.441z
			"/>
	</g>
	<g id="XMLID_1046_">
		<path fill="#444444" d="M23.575,71.379l-0.469-2.417c0.312-0.059,7.781-1.473,20.87-0.728c3.2,0.178,6.42-0.527,9.308-2.05
			l19.375-10.222c-0.689-0.599-1.881-1.031-3.921-0.494c-0.322,0.085-0.653,0.22-0.906,0.327l-10.009,4.269l-0.966-2.264
			l10.011-4.27c0.328-0.141,0.766-0.317,1.242-0.442c3.965-1.046,6.001,0.648,6.861,1.752c0.369,0.474,0.51,1.082,0.384,1.668
			c-0.125,0.584-0.499,1.077-1.027,1.356L54.432,68.361c-3.283,1.731-6.948,2.536-10.597,2.33
			C31.09,69.967,23.648,71.365,23.575,71.379z"/>
	</g>
	<g id="XMLID_1045_">
		<polygon fill="#444444" points="24.37,76.193 15.779,76.193 15.779,73.732 21.909,73.732 21.909,57.205 15.779,57.205 
			15.779,54.744 24.37,54.744 		"/>
	</g>
	<g id="XMLID_1044_">
		<rect x="3" y="50.422" fill="#3F9FFF" width="12.779" height="29.578"/>
	</g>
</g>
</svg>
