<?xml version="1.0" encoding="utf-8"?>
<!-- Generator: Adobe Illustrator 15.0.0, SVG Export Plug-In . SVG Version: 6.00 Build 0)  -->
<!DOCTYPE svg PUBLIC "-//W3C//DTD SVG 1.1//EN" "http://www.w3.org/Graphics/SVG/1.1/DTD/svg11.dtd">
<svg version="1.1" id="Layer_1" xmlns="http://www.w3.org/2000/svg" xmlns:xlink="http://www.w3.org/1999/xlink" x="0px" y="0px"
	 width="80px" height="80px" viewBox="0 0 80 80" enable-background="new 0 0 80 80" xml:space="preserve">
<g id="XMLID_901_">
	<g id="XMLID_915_">
		<circle fill="#3F9FFF" cx="26.863" cy="10.921" r="2.565"/>
	</g>
	<g id="XMLID_914_">
		<rect x="-0.014" y="71.627" fill="#444444" width="80.014" height="2.443"/>
	</g>
	<g id="XMLID_913_">
		<rect x="-0.014" y="38.894" fill="#3F9FFF" width="8.399" height="26.823"/>
	</g>
	<g id="XMLID_912_">
		<rect x="68.017" y="24.972" fill="#3F9FFF" width="8.399" height="40.745"/>
	</g>
	<g id="XMLID_911_">
		<rect x="22.663" y="24.461" fill="#3F9FFF" width="8.399" height="41.255"/>
	</g>
	<g id="XMLID_910_">
		<path fill="#444444" d="M26.862,18.093c-3.954,0-7.171-3.217-7.171-7.172c0-3.954,3.217-7.171,7.171-7.171
			c3.955,0,7.172,3.217,7.172,7.171C34.034,14.876,30.817,18.093,26.862,18.093z M26.862,6.193c-2.607,0-4.728,2.121-4.728,4.728
			s2.121,4.729,4.728,4.729s4.729-2.122,4.729-4.729S29.47,6.193,26.862,6.193z"/>
	</g>
	<g id="XMLID_909_">
		<circle fill="#3F9FFF" cx="72.216" cy="11.433" r="2.565"/>
	</g>
	<g id="XMLID_908_">
		<path fill="#444444" d="M72.217,18.604c-3.955,0-7.172-3.217-7.172-7.172c0-3.955,3.217-7.172,7.172-7.172
			c3.954,0,7.171,3.217,7.171,7.172C79.388,15.387,76.171,18.604,72.217,18.604z M72.217,6.704c-2.607,0-4.729,2.122-4.729,4.729
			c0,2.607,2.121,4.729,4.729,4.729s4.728-2.122,4.728-4.729C76.944,8.825,74.824,6.704,72.217,6.704z"/>
	</g>
	<g id="XMLID_907_">
		<rect x="45.34" y="37.362" fill="#3F9FFF" width="8.398" height="28.355"/>
	</g>
	<g id="XMLID_906_">
		<path fill="#444444" d="M49.54,28.62c-2.646,0-4.799-2.152-4.799-4.798s2.153-4.798,4.799-4.798c2.645,0,4.797,2.152,4.797,4.798
			S52.185,28.62,49.54,28.62z M49.54,21.467c-1.3,0-2.355,1.057-2.355,2.355s1.056,2.355,2.355,2.355
			c1.298,0,2.354-1.057,2.354-2.355S50.838,21.467,49.54,21.467z"/>
	</g>
	<g id="XMLID_905_">
		<path fill="#444444" d="M4.186,30.153c-2.646,0-4.798-2.152-4.798-4.798s2.152-4.798,4.798-4.798s4.798,2.152,4.798,4.798
			S6.831,30.153,4.186,30.153z M4.186,23c-1.298,0-2.354,1.057-2.354,2.355s1.056,2.355,2.354,2.355s2.355-1.057,2.355-2.355
			S5.484,23,4.186,23z"/>
	</g>
	<g id="XMLID_904_">
		
			<rect x="13.085" y="9.766" transform="matrix(0.519 0.8548 -0.8548 0.519 22.671 -3.3441)" fill="#444444" width="2.443" height="17.413"/>
	</g>
	<g id="XMLID_903_">
		
			<rect x="31.117" y="16.285" transform="matrix(0.847 0.5315 -0.5315 0.847 15.2943 -18.1343)" fill="#444444" width="16.075" height="2.443"/>
	</g>
	<g id="XMLID_902_">
		
			<rect x="58.548" y="9.895" transform="matrix(0.4976 0.8674 -0.8674 0.4976 45.6972 -42.772)" fill="#444444" width="2.444" height="16.331"/>
	</g>
</g>
</svg>
