<?xml version="1.0" encoding="utf-8"?>
<!-- Generator: Adobe Illustrator 15.0.0, SVG Export Plug-In . SVG Version: 6.00 Build 0)  -->
<!DOCTYPE svg PUBLIC "-//W3C//DTD SVG 1.1//EN" "http://www.w3.org/Graphics/SVG/1.1/DTD/svg11.dtd">
<svg version="1.1" id="Layer_1" xmlns="http://www.w3.org/2000/svg" xmlns:xlink="http://www.w3.org/1999/xlink" x="0px" y="0px"
	 width="80px" height="80px" viewBox="0 0 80 80" enable-background="new 0 0 80 80" xml:space="preserve">
<g id="XMLID_592_">
	<g id="XMLID_603_">
		<path fill="#3F9FFF" d="M73.811,1.018H6.493c-1.751,0-3.172,1.419-3.172,3.171v3.749h66.741v66.741h3.748
			c1.752,0,3.173-1.42,3.173-3.172V4.189C76.983,2.437,75.562,1.018,73.811,1.018z"/>
	</g>
	<g id="XMLID_602_">
		<path fill="#444444" d="M55.034,44.224h-5.575v-5.267c-0.933-0.804-1.476-1.972-1.476-3.221c0-2.351,1.912-4.264,4.264-4.264
			c2.351,0,4.264,1.913,4.264,4.264c0,1.25-0.543,2.417-1.477,3.221V44.224z M51.494,42.189h1.505V37.9l0.462-0.301
			c0.636-0.414,1.015-1.11,1.015-1.863c0-1.229-1-2.229-2.229-2.229c-1.229,0-2.229,1-2.229,2.229c0,0.753,0.38,1.45,1.015,1.863
			l0.462,0.301V42.189z"/>
	</g>
	<g id="XMLID_601_">
		<path fill="#444444" d="M73.914,75.696H6.391c-2.253,0-4.087-1.833-4.087-4.087V4.086C2.304,1.833,4.137,0,6.391,0h67.523
			C76.168,0,78,1.833,78,4.086v67.523C78,73.863,76.168,75.696,73.914,75.696z M6.391,2.035c-1.131,0-2.052,0.92-2.052,2.052v67.523
			c0,1.131,0.921,2.052,2.052,2.052h67.523c1.131,0,2.052-0.921,2.052-2.052V4.086c0-1.131-0.921-2.052-2.052-2.052H6.391z"/>
	</g>
	<g id="XMLID_596_">
		<g id="XMLID_600_">
			<path fill="#444444" d="M63.404,59.816H19.468v-3.953c0-0.562,0.456-1.018,1.018-1.018s1.017,0.455,1.017,1.018v1.919H61.37
				V17.914H21.503v1.785c0,0.562-0.455,1.017-1.017,1.017s-1.018-0.455-1.018-1.017v-3.819h43.936V59.816z"/>
		</g>
		<g id="XMLID_599_">
			<path fill="#444444" d="M20.486,51.476c-0.562,0-1.018-0.455-1.018-1.018v-25.22c0-0.562,0.456-1.018,1.018-1.018
				s1.017,0.456,1.017,1.018v25.22C21.503,51.021,21.048,51.476,20.486,51.476z"/>
		</g>
		<g id="XMLID_598_">
			<path fill="#444444" d="M25.022,26.255h-9.725v-9.358c0-0.562,0.456-1.018,1.017-1.018c0.562,0,1.018,0.456,1.018,1.018v7.323
				h7.69c0.562,0,1.018,0.456,1.018,1.018S25.584,26.255,25.022,26.255z"/>
		</g>
		<g id="XMLID_597_">
			<path fill="#444444" d="M16.315,59.816c-0.562,0-1.017-0.455-1.017-1.018V49.44h9.725c0.562,0,1.018,0.456,1.018,1.018
				c0,0.562-0.456,1.018-1.018,1.018h-7.69v7.323C17.333,59.361,16.877,59.816,16.315,59.816z"/>
		</g>
	</g>
	<g id="XMLID_593_">
		<g id="XMLID_595_">
			<path fill="#444444" d="M28.358,80H5.106c-0.562,0-1.018-0.455-1.018-1.018c0-0.562,0.456-1.018,1.018-1.018h23.252
				c0.562,0,1.018,0.456,1.018,1.018C29.376,79.545,28.92,80,28.358,80z"/>
		</g>
		<g id="XMLID_594_">
			<path fill="#444444" d="M75.198,80H51.945c-0.562,0-1.018-0.455-1.018-1.018c0-0.562,0.456-1.018,1.018-1.018h23.253
				c0.562,0,1.017,0.456,1.017,1.018C76.215,79.545,75.76,80,75.198,80z"/>
		</g>
	</g>
</g>
</svg>
