<?xml version="1.0" encoding="utf-8"?>
<!-- Generator: Adobe Illustrator 15.0.0, SVG Export Plug-In . SVG Version: 6.00 Build 0)  -->
<!DOCTYPE svg PUBLIC "-//W3C//DTD SVG 1.1//EN" "http://www.w3.org/Graphics/SVG/1.1/DTD/svg11.dtd">
<svg version="1.1" id="Layer_1" xmlns="http://www.w3.org/2000/svg" xmlns:xlink="http://www.w3.org/1999/xlink" x="0px" y="0px"
	 width="80px" height="80px" viewBox="0 0 80 80" enable-background="new 0 0 80 80" xml:space="preserve">
<g id="XMLID_1073_">
	<g id="XMLID_1085_">
		<path fill="#444444" d="M27.008,32.012H1.041c-0.416,0-0.792-0.248-0.956-0.629c-0.164-0.382-0.085-0.825,0.201-1.127
			l12.984-13.705c0.393-0.415,1.118-0.415,1.511,0l12.983,13.705c0.286,0.302,0.365,0.745,0.201,1.127
			C27.8,31.765,27.424,32.012,27.008,32.012z M3.46,29.931h21.128L14.024,18.78L3.46,29.931z"/>
	</g>
	<g id="XMLID_1084_">
		<polygon fill="#3F9FFF" points="21.066,20.295 32.951,20.295 27.008,26.568 		"/>
	</g>
	<g id="XMLID_1083_">
		<path fill="#444444" d="M78.959,32.012c-0.006,0-0.011,0-0.016,0H52.975c-0.415,0-0.791-0.248-0.955-0.629
			c-0.164-0.382-0.086-0.825,0.201-1.127l12.983-13.705c0.393-0.415,1.118-0.415,1.511,0l12.883,13.598
			C79.842,30.34,80,30.637,80,30.972C80,31.546,79.534,32.012,78.959,32.012z M55.395,29.931h21.129L65.959,18.78L55.395,29.931z"/>
	</g>
	<g id="XMLID_1082_">
		<polygon fill="#3F9FFF" points="47.033,20.295 58.918,20.295 52.975,26.568 		"/>
	</g>
	<g id="XMLID_1081_">
		<path fill="#444444" d="M52.992,32.012c-0.006,0-0.011,0-0.018,0H27.008c-0.416,0-0.792-0.248-0.956-0.629
			c-0.164-0.382-0.085-0.825,0.201-1.127l12.984-13.705c0.393-0.415,1.118-0.415,1.511,0L53.63,30.149
			c0.245,0.19,0.403,0.488,0.403,0.822C54.033,31.546,53.566,32.012,52.992,32.012z M29.427,29.931h21.128L39.992,18.78
			L29.427,29.931z"/>
	</g>
	<g id="XMLID_1080_">
		<path fill="#444444" d="M39.992,69.773c-0.444,0-0.839-0.282-0.984-0.702L26.024,31.31c-0.109-0.318-0.058-0.669,0.137-0.943
			c0.196-0.273,0.511-0.436,0.847-0.436h25.967c0.337,0,0.652,0.163,0.848,0.436c0.195,0.274,0.246,0.625,0.137,0.943L40.977,69.071
			C40.831,69.491,40.436,69.773,39.992,69.773z M28.466,32.012l11.526,33.52l11.526-33.52H28.466z"/>
	</g>
	<g id="XMLID_1079_">
		<polygon fill="#3F9FFF" points="8.516,34 24.847,34 33.012,57.748 		"/>
	</g>
	<g id="XMLID_1078_">
		<polygon fill="#3F9FFF" points="55.137,34 71.468,34 46.972,57.748 		"/>
	</g>
	<g id="XMLID_1077_">
		<path fill="#444444" d="M27.008,32.012c-0.286,0-0.559-0.117-0.755-0.325L13.269,17.983c-0.286-0.302-0.365-0.745-0.201-1.127
			s0.541-0.629,0.956-0.629h25.967c0.416,0,0.792,0.248,0.956,0.629c0.165,0.382,0.086,0.825-0.2,1.127L27.763,31.688
			C27.567,31.895,27.294,32.012,27.008,32.012z M16.444,18.308l10.564,11.151l10.564-11.151H16.444z"/>
	</g>
	<g id="XMLID_1076_">
		<path fill="#444444" d="M52.975,32.012c-0.285,0-0.559-0.117-0.754-0.325L39.236,17.983c-0.286-0.302-0.365-0.745-0.201-1.127
			c0.165-0.382,0.541-0.629,0.956-0.629h25.967c0.416,0,0.792,0.248,0.956,0.629c0.165,0.382,0.085,0.825-0.2,1.127L53.73,31.688
			C53.534,31.895,53.262,32.012,52.975,32.012z M42.411,18.308l10.563,11.151l10.564-11.151H42.411z"/>
	</g>
	<g id="XMLID_1075_">
		<path fill="#444444" d="M39.992,69.773c-0.264,0-0.525-0.1-0.725-0.294L0.316,31.719c-0.305-0.295-0.399-0.745-0.24-1.138
			c0.159-0.393,0.541-0.65,0.964-0.65h25.967c0.444,0,0.839,0.282,0.984,0.703l12.926,37.594c0.084,0.15,0.131,0.322,0.131,0.505
			c0,0.575-0.465,1.041-1.041,1.041C40.001,69.772,39.997,69.773,39.992,69.773z M3.609,32.012l33.984,32.947L26.265,32.012H3.609z"
			/>
	</g>
	<g id="XMLID_1074_">
		<path fill="#444444" d="M39.991,69.773c-0.192,0-0.386-0.054-0.558-0.163c-0.406-0.257-0.583-0.761-0.426-1.216l12.983-37.761
			c0.145-0.42,0.54-0.703,0.983-0.703h25.969c0.424,0,0.805,0.257,0.964,0.65c0.159,0.393,0.063,0.843-0.24,1.138l-38.95,37.761
			C40.517,69.674,40.255,69.773,39.991,69.773z M53.718,32.012L42.39,64.959l33.984-32.947H53.718z"/>
	</g>
</g>
</svg>
