<?xml version="1.0" encoding="utf-8"?>
<!-- Generator: Adobe Illustrator 15.0.0, SVG Export Plug-In . SVG Version: 6.00 Build 0)  -->
<!DOCTYPE svg PUBLIC "-//W3C//DTD SVG 1.1//EN" "http://www.w3.org/Graphics/SVG/1.1/DTD/svg11.dtd">
<svg version="1.1" id="_x2014_ÎÓÈ_x5F_1" xmlns="http://www.w3.org/2000/svg" xmlns:xlink="http://www.w3.org/1999/xlink"
	 x="0px" y="0px" width="1000px" height="1000px" viewBox="0 0 1000 1000" enable-background="new 0 0 1000 1000"
	 xml:space="preserve">
<g opacity="0.1">
	<polygon fill="#020202" points="427.51,92.561 421.479,105.415 431.605,116.662 	"/>
	<polygon fill="#020202" points="420.812,104.675 426.844,91.819 411.848,94.717 	"/>
	<polygon fill="#020202" points="255.617,789.701 257.385,789.42 279.316,785.947 280.02,777.963 258.104,781.432 259.211,769.082 
		264.971,765.855 265.596,761.133 259.627,764.479 261.32,745.6 249.094,747.535 246.934,771.592 241.727,774.508 241.102,779.232 
		246.521,776.195 245.158,791.357 	"/>
	<path fill="#020202" d="M334.943,563.314c8.321-0.597,16.102-5.517,19.961-13.578c3.858-8.066,2.809-17.207-1.949-24.062
		l-2.559,5.346l-1.962,4.099l-4.098-1.959l-7.539-3.611l4.89,13.865l-13.861,4.889l7.539,3.607l4.098,1.963l-1.961,4.098
		L334.943,563.314z"/>
	<path fill="#020202" d="M358.668,274.1l0.492,7.025c2.09,0.511,4.293,0.713,6.555,0.557c11.752-0.822,20.615-11.018,19.793-22.771
		s-11.016-20.615-22.77-19.792c-2.263,0.156-4.414,0.666-6.414,1.462l0.492,7.026l11.44-0.801l5.556-0.389l-12.318,14.173
		l14.172,12.319l-5.557,0.389L358.668,274.1z"/>
	<path fill="#020202" d="M397.182,459.137l-16.295,24.156l4.611,5.766l14.584-21.618c0.078-0.117,0.246-0.121,0.332-0.013
		l7.334,9.461c0.225,0.289,0.236,0.689,0.031,0.992l-14.511,21.512l4.611,5.769l16.062-23.814c2.17-3.215,2.069-7.446-0.248-10.557
		l-8.824-11.836C402.928,456.35,398.998,456.443,397.182,459.137z"/>
	<polygon fill="#020202" points="404.539,107.38 408.988,92.769 402.445,85.503 	"/>
	<polygon fill="#020202" points="407.67,925.078 390.705,937.396 404.021,936.305 414.156,945.016 	"/>
	<path fill="#020202" d="M161.774,277.297c-1.294-0.824-2.641-0.762-3.144-0.713c0.363-0.295,1.076-0.959,1.445-2.043
		c0.778-2.283-0.704-4.243-0.802-4.367c-1.001-1.277-2.392-1.637-3.124-1.812c-1.04-0.251-1.896-0.205-4.141,0.301l-0.809-3.506
		c-0.032-0.145-0.176-0.232-0.32-0.197l-2.177,0.5c-0.143,0.034-0.232,0.178-0.2,0.32l0.814,3.525
		c-0.705,0.176-1.369,0.346-1.973,0.502l-0.824-3.568c-0.034-0.145-0.176-0.234-0.32-0.201l-2.176,0.504
		c-0.146,0.033-0.234,0.176-0.2,0.319l0.843,3.657c-0.151,0.041-0.281,0.076-0.386,0.105c-2.068,0.561-3.26,0.889-4.426,1.186
		c-0.142,0.037-0.223,0.176-0.19,0.318l0.588,2.541c0.032,0.145,0.176,0.232,0.319,0.197l2.664-0.615
		c0.144-0.031,0.288,0.059,0.32,0.201l3.127,13.547c0.034,0.145-0.056,0.285-0.2,0.32l-2.236,0.42
		c-0.127,0.029-0.215,0.148-0.205,0.277c0.057,0.826,0.159,1.59,0.225,2.402c0.012,0.146,0.135,0.257,0.28,0.247
		c0.506-0.032,1.172-0.085,2.017-0.186c0.605-0.071,1.471-0.161,2.853-0.396l0.785,3.398c0.032,0.145,0.176,0.232,0.318,0.2
		l2.178-0.503c0.144-0.031,0.234-0.176,0.2-0.32l-0.782-3.389c0.405-0.098,0.833-0.205,1.295-0.322
		c0.241-0.062,0.464-0.119,0.678-0.176l0.792,3.428c0.033,0.145,0.176,0.234,0.321,0.201l2.176-0.504
		c0.145-0.031,0.232-0.176,0.2-0.316l-0.813-3.531c0.19-0.059,0.361-0.111,0.509-0.166c2.764-0.996,4.481-1.615,5.666-3.327
		c0.212-0.306,1.487-2.212,1.072-4.697C163.908,280.439,163.574,278.445,161.774,277.297z M149.192,277.805l-1.141-4.938
		c-0.032-0.144,0.057-0.286,0.2-0.319l2.438-0.562c0.312-0.082,1.939-0.539,3.208,0.389c0.244,0.178,0.747,0.666,0.934,1.395
		c0.243,0.939-0.247,1.789-0.483,2.141c-0.755,1.131-2.007,1.44-2.398,1.535l-2.437,0.562
		C149.368,278.039,149.226,277.949,149.192,277.805z M157.527,284.885c-0.729,0.828-1.795,1.292-2.266,1.424l-3.629,0.838
		c-0.146,0.039-0.295-0.049-0.329-0.198l-1.338-5.794c-0.034-0.146,0.056-0.287,0.2-0.322c1.03-0.236,2.319-0.527,3.091-0.713
		c1.079-0.261,2.886-0.814,4.119,0.352c0.209,0.195,0.812,0.689,1.027,1.656C158.672,283.328,157.849,284.52,157.527,284.885z"/>
	<path fill="#020202" d="M413.285,829.727l-31.508-9.049l-4.568,6.937l28.197,8.1c0.151,0.043,0.217,0.221,0.127,0.353
		l-7.576,11.133c-0.23,0.338-0.656,0.492-1.051,0.377l-28.06-8.058l-4.567,6.938l31.059,8.92c4.193,1.203,8.689-0.375,11.209-3.934
		l9.603-13.552C418.262,834.908,416.797,830.736,413.285,829.727z"/>
	<polygon fill="#020202" points="409.598,92.22 424.594,89.321 403.055,84.954 	"/>
	<path fill="#020202" d="M282.104,895.834c13.903-4.785,21.317-19.994,16.53-33.895c-4.785-13.902-19.992-21.32-33.896-16.533
		c-13.9,4.789-21.318,19.994-16.53,33.896C252.996,893.207,268.201,900.621,282.104,895.834z M265.574,847.822
		c12.568-4.326,26.318,2.379,30.645,14.947c4.328,12.571-2.379,26.317-14.947,30.647c-12.57,4.33-26.318-2.377-30.646-14.947
		C246.297,865.898,253.003,852.152,265.574,847.822z"/>
	<polygon fill="#020202" points="0,348.562 0,359.807 12.474,343.852 	"/>
	<path fill="#020202" d="M3.801,452.289l6.585-2.266L0.095,471.119l21.099,10.291l-6.586,2.266l-13.553,4.668l2.866,8.324
		c2.688-0.061,5.415-0.525,8.094-1.449c13.925-4.793,21.327-19.969,16.532-33.895C24.362,449.17,12.269,441.988,0,443.547v10.051
		L3.801,452.289z"/>
	<polygon fill="#020202" points="47.471,0 36.875,0 44.177,10.101 	"/>
	<path fill="#020202" d="M256.59,876.158l4.277-1.476c0.31,0.857,0.605,1.658,0.879,2.388l-4.326,1.49
		c-0.176,0.062-0.27,0.252-0.211,0.424l0.911,2.643c0.062,0.174,0.249,0.269,0.425,0.205l4.436-1.525
		c0.071,0.183,0.133,0.343,0.182,0.47c0.971,2.496,1.53,3.936,2.053,5.344c0.063,0.17,0.249,0.254,0.42,0.195l3.081-1.062
		c0.173-0.059,0.267-0.25,0.208-0.424l-1.113-3.232c-0.059-0.176,0.033-0.362,0.207-0.422l16.431-5.662
		c0.173-0.059,0.364,0.037,0.423,0.209l0.814,2.726c0.055,0.156,0.213,0.25,0.374,0.221c1.019-0.178,1.956-0.406,2.956-0.596
		c0.182-0.031,0.301-0.201,0.271-0.381c-0.105-0.625-0.262-1.445-0.496-2.48c-0.166-0.742-0.391-1.809-0.863-3.496l4.121-1.418
		c0.176-0.059,0.268-0.248,0.207-0.424l-0.908-2.641c-0.061-0.177-0.252-0.267-0.425-0.207l-4.108,1.416
		c-0.176-0.492-0.367-1.011-0.572-1.566c-0.109-0.293-0.209-0.562-0.307-0.819l4.16-1.433c0.176-0.062,0.266-0.252,0.207-0.428
		l-0.91-2.639c-0.059-0.177-0.25-0.269-0.426-0.209l-4.277,1.475c-0.098-0.229-0.188-0.435-0.273-0.611
		c-1.602-3.305-2.598-5.358-4.877-6.608c-0.406-0.222-2.945-1.562-5.982-0.72c-0.756,0.209-3.193,0.886-4.382,3.275
		c-0.856,1.715-0.603,3.379-0.476,3.996c-0.416-0.412-1.334-1.211-2.73-1.529c-2.939-0.668-5.183,1.433-5.324,1.568
		c-1.457,1.414-1.721,3.188-1.844,4.121c-0.178,1.325-0.004,2.383,0.914,5.106l-4.251,1.465c-0.173,0.06-0.267,0.248-0.208,0.425
		l0.908,2.641C256.226,876.127,256.416,876.217,256.59,876.158z M273.693,863.209c0.215-0.285,0.75-1.1,1.922-1.494
		c1.463-0.49,3.049,0.379,3.545,0.73c1.125,0.797,1.844,2.061,2.068,2.627l1.514,4.403c0.068,0.177-0.022,0.373-0.201,0.437
		l-7.031,2.418c-0.173,0.062-0.363-0.031-0.422-0.205c-0.432-1.25-0.959-2.814-1.291-3.75
		C273.33,867.066,272.404,864.896,273.693,863.209z M264.082,868.59c0.188-0.324,0.73-1.016,1.609-1.344
		c1.137-0.424,2.258,0.074,2.727,0.322c1.502,0.791,2.053,2.305,2.222,2.783l1.019,2.954c0.059,0.175-0.035,0.365-0.208,0.425
		l-5.991,2.063c-0.174,0.06-0.363-0.033-0.422-0.209l-1.021-2.955C263.875,872.252,263.094,870.287,264.082,868.59z"/>
	<polygon fill="#020202" points="316.178,613.75 292.723,611.293 297.617,634.365 302.588,620.18 	"/>
	<polygon fill="#020202" points="406.789,109.878 420.201,105.223 411.236,95.267 	"/>
	<path fill="#020202" d="M118.982,715.088c2.263,5.084,8.218,7.369,13.303,5.107c5.083-2.267,7.37-8.22,5.105-13.306
		c-1.836-4.12-6.1-6.401-10.357-5.909c-1.291-0.22-2.453-1.045-3.026-2.332c-0.906-2.037,0.01-4.425,2.048-5.332
		c0.369-0.162,0.749-0.261,1.13-0.31c2.041,0.463,4.241,0.304,6.302-0.614c5.083-2.263,7.37-8.22,5.105-13.302
		c-2.264-5.084-8.219-7.369-13.302-5.106c-5.085,2.262-7.37,8.219-5.107,13.301c0.318,0.719,0.718,1.371,1.17,1.973
		c0.403,1.865-0.539,3.822-2.352,4.629c-1.723,0.769-3.686,0.255-4.834-1.123c-0.065-0.166-0.121-0.336-0.195-0.502
		c-2.263-5.084-8.22-7.368-13.303-5.106c-5.083,2.264-7.37,8.221-5.105,13.305c2.262,5.082,8.219,7.369,13.302,5.104
		c2.341-1.041,4.079-2.871,5.062-5.031c0.366-0.447,0.825-0.824,1.387-1.072c1.941-0.865,4.217,0.008,5.081,1.951
		c0.495,1.113,0.412,2.33-0.109,3.332C118.04,707.588,117.405,711.547,118.982,715.088z"/>
	<polygon fill="#020202" points="420.869,105.964 407.455,110.618 430.996,117.21 	"/>
	<path fill="#020202" d="M333.402,556.006l-11.64-5.57l-5.651-2.705l19.924-7.022l-7.027-19.922l5.654,2.705l11.637,5.565
		l3.422-7.146c-1.764-1.66-3.805-3.082-6.104-4.183c-11.957-5.723-26.287-0.668-32.011,11.289
		c-5.723,11.955-0.665,26.285,11.289,32.009c2.302,1.1,4.689,1.797,7.089,2.129L333.402,556.006z"/>
	<polygon fill="#020202" points="320.047,617.232 306.049,623.291 301.486,637.848 316.344,632.564 	"/>
	<polygon fill="#020202" points="323.066,619.951 320.244,636.074 304.506,640.566 328.393,643.412 	"/>
	<path fill="#020202" d="M777.061,910.371c5.523,0.678,10.552-3.248,11.23-8.773c0.678-5.522-3.248-10.549-8.773-11.229
		c-2.541-0.312-4.977,0.36-6.934,1.709c-0.539,0.192-1.129,0.281-1.738,0.205c-2.108-0.261-3.608-2.181-3.352-4.289
		c0.147-1.209,0.85-2.207,1.809-2.801c3.394-1.281,5.978-4.353,6.449-8.195c0.678-5.525-3.248-10.551-8.773-11.23
		c-5.522-0.678-10.549,3.252-11.229,8.771c-0.547,4.481,1.934,8.633,5.838,10.404c0.992,0.854,1.562,2.157,1.389,3.555
		c-0.27,2.213-2.284,3.789-4.498,3.516c-0.399-0.049-0.776-0.16-1.127-0.315c-1.514-1.445-3.481-2.441-5.719-2.717
		c-5.522-0.679-10.551,3.247-11.227,8.771c-0.683,5.525,3.248,10.551,8.77,11.229c5.523,0.68,10.553-3.25,11.23-8.773
		c0.094-0.777,0.09-1.543,0.012-2.289c0.615-1.809,2.43-3,4.402-2.756c1.866,0.227,3.286,1.676,3.563,3.449
		c-0.033,0.18-0.072,0.352-0.096,0.53C767.611,904.664,771.539,909.691,777.061,910.371z"/>
	<polygon fill="#020202" points="794.271,978.281 799.219,992.65 805.146,992.51 800.201,978.141 	"/>
	<path fill="#020202" d="M328.988,135.352c-3.531,3.564-8.222,9.583-10.736,18.176c-2.768,9.432-1.705,17.71-0.307,23.037
		c4.852,1.274,12.41,2.325,21.108,0.21c9.552-2.323,16.189-7.38,20.104-11.254c-1.32-4.84-4.189-11.91-10.373-18.387
		C341.998,140.024,334.301,136.804,328.988,135.352z M330.967,175.472c-2.369,0.967-4.662,0.622-7.838,0.146
		c-1.074-0.161-2.156-0.381-3.213-0.649l-0.146-0.036l-0.036-0.146c-1.115-4.443-1.423-8.996-0.912-13.528
		c0.387-3.461,1.252-6.854,2.563-10.085l0.265-0.649l0.209,0.671c0.414,1.336,1.276,3.302,3.022,5.063
		c2.18,2.202,4.33,2.837,6.055,3.346l0.093,0.028c1.293,0.508,3.051,1.5,4.205,3.392c1.266,2.072,1.385,4.479,0.817,6.587
		c-0.344,1.281-0.938,2.451-1.682,3.367C333.756,173.732,332.67,174.777,330.967,175.472z M355.746,161.504
		c0.4,1.018,0.752,2.063,1.047,3.108l0.039,0.146l-0.107,0.104c-3.291,3.188-7.08,5.731-11.26,7.558
		c-3.19,1.393-6.561,2.342-10.016,2.818l-0.695,0.097l0.478-0.515c0.95-1.028,2.221-2.757,2.875-5.151l0,0
		c0.006-0.026,0.016-0.054,0.021-0.08c0.668-2.493,0.295-4.438-0.006-6.004c-0.064-0.33-0.125-0.646-0.172-0.945
		c-0.174-1.094-0.295-3.239,0.838-5.317c1.867-3.428,5.967-4.722,9.053-4.23c0.959,0.153,2.408,0.571,3.863,1.699
		C353.725,156.357,354.572,158.516,355.746,161.504z M349.688,151.579l-0.684-0.155c-1.363-0.309-3.496-0.545-5.896,0.087
		c-2.961,0.777-4.656,2.371-5.896,3.535l-0.047,0.045c-0.059,0.058-0.104,0.1-0.133,0.121c-1.054,0.828-2.771,1.826-4.959,1.881
		c-3.902,0.097-7.072-2.808-8.189-5.726c-0.348-0.906-0.709-2.37-0.459-4.196c0.349-2.53,1.791-4.346,3.793-6.856
		c0.679-0.852,1.41-1.68,2.17-2.46l0.104-0.107l0.145,0.041c4.406,1.257,8.502,3.265,12.176,5.974
		c2.8,2.065,5.306,4.508,7.447,7.264L349.688,151.579z"/>
	<polygon fill="#020202" points="361.188,717.012 347.289,737.123 361.221,731.211 	"/>
	<path fill="#020202" d="M90.791,151.436c-0.285-0.285-0.511-0.604-0.691-0.942c-0.303-2.072-1.24-4.069-2.834-5.662
		c-3.936-3.936-10.314-3.936-14.25,0c-3.934,3.936-3.934,10.313,0,14.249c3.936,3.935,10.314,3.935,14.25,0
		c0.554-0.555,1.022-1.16,1.419-1.798c1.599-1.045,3.764-0.868,5.166,0.535c1.332,1.333,1.558,3.348,0.684,4.917
		c-0.133,0.12-0.27,0.232-0.398,0.361c-3.936,3.936-3.936,10.314,0,14.25c3.934,3.934,10.314,3.934,14.248,0
		c3.936-3.936,3.936-10.314,0-14.25c-1.812-1.812-4.143-2.78-6.514-2.922c-0.545-0.182-1.062-0.477-1.497-0.911
		c-1.503-1.502-1.503-3.938,0-5.442c0.86-0.861,2.027-1.22,3.152-1.093c3.46,1.076,7.385,0.251,10.125-2.49
		c3.935-3.934,3.935-10.313,0-14.248c-3.936-3.937-10.313-3.937-14.249,0c-3.192,3.19-3.793,7.99-1.807,11.789
		c0.259,1.282-0.098,2.664-1.093,3.657C94.925,153.015,92.368,153.015,90.791,151.436z"/>
	<polygon fill="#020202" points="639.42,901.303 613.75,892.396 611.982,885.914 606.998,883.949 608.838,890.689 592.66,885.078 
		591.621,896.947 591.445,898.951 589.268,923.834 597.793,926.777 599.967,901.91 613.148,906.48 615.104,913.646 620.088,915.611 
		618.061,908.188 638.209,915.176 	"/>
	<path fill="#020202" d="M542.021,996.363c-1.484-9.717-5.941-16.771-9.459-21.008c-4.939,0.895-12.23,3.137-19.224,8.729
		c-6.391,5.113-10.123,11.074-12.307,15.914h2.35c1.545-3.363,3.537-6.475,5.988-9.258c2.305-2.611,4.959-4.896,7.889-6.787
		l0.588-0.381l-0.215,0.668c-0.426,1.334-0.85,3.438-0.43,5.885c0.524,3.053,1.922,4.805,3.045,6.215l0.059,0.07
		c0.572,0.867,1.197,2.1,1.427,3.588h4.727c0.441-0.377,0.939-0.736,1.529-1.029c3.096-1.534,6.664-0.692,8.998,1.029h2.75
		c-0.941-1.035-2.554-2.447-4.879-3.307c-2.871-1.062-5.177-0.73-6.855-0.488l-0.066,0.01c-0.08,0.013-0.143,0.021-0.176,0.025
		c-1.338,0.072-3.315-0.094-5.143-1.305c-3.252-2.158-4.185-6.357-3.424-9.39c0.233-0.94,0.776-2.348,2.03-3.697
		c1.734-1.875,3.957-2.532,7.037-3.444c1.045-0.31,2.119-0.566,3.189-0.769l0.146-0.028l0.097,0.112
		c2.891,3.56,5.09,7.554,6.545,11.879c1.11,3.298,1.762,6.734,1.938,10.222l0.006,0.18h2.222
		C542.328,998.814,542.211,997.607,542.021,996.363z"/>
	<path fill="#020202" d="M352.787,247.889l-0.369-5.254c-6.172,4.111-10.027,11.325-9.473,19.252
		c0.555,7.93,5.377,14.537,12.061,17.75l-0.367-5.257l-0.28-4.028l4.028-0.281l7.41-0.52l-9.861-8.572l8.572-9.86l-7.41,0.518
		l-4.028,0.28L352.787,247.889z"/>
	<polygon fill="#020202" points="402.744,940.24 389.273,941.797 398.938,951.953 412.725,949.418 	"/>
	<polygon fill="#020202" points="933.984,811.908 939.721,810.318 932.955,805.084 955.508,797.816 947.309,784.691 
		918.574,793.955 912.672,789.389 906.934,790.977 913.072,795.727 894.965,801.566 901.979,812.789 903.164,814.691 
		917.871,838.227 927.402,835.137 912.705,811.615 927.457,806.859 	"/>
	<polygon fill="#020202" points="361.541,731.967 347.609,737.877 371.73,741.852 	"/>
	<path fill="#020202" d="M793.965,8.962c1.264,3.665,4.703,6.133,8.584,6.153l14.762,0.075c3.246,0.017,5.537-3.179,4.48-6.248
		L818.715,0h-7.455l2.154,6.26c0.047,0.134-0.051,0.271-0.191,0.273l-11.967,0.163c-0.367,0.005-0.692-0.227-0.812-0.571L798.334,0
		h-7.451L793.965,8.962z"/>
	<path fill="#020202" d="M517.047,15.062c9.158,3.574,17.494,3.241,22.924,2.313c1.455-4.06,2.906-10.132,2.433-17.375h-2.222
		l0.027,0.522l-0.469-0.52L539.736,0h-2.75c0.303,0.222,0.586,0.452,0.842,0.7c0.697,0.675,1.645,1.849,2.188,3.608
		c0.761,2.442,0.216,4.697-0.537,7.817c-0.256,1.062-0.567,2.122-0.928,3.147l-0.049,0.142l-0.148,0.024
		c-4.524,0.723-9.086,0.632-13.555-0.271c-3.416-0.688-6.719-1.844-9.824-3.434l-0.623-0.319l0.685-0.149
		c1.371-0.297,3.402-0.985,5.311-2.57V8.694c0.021-0.016,0.041-0.034,0.064-0.052c1.977-1.658,2.787-3.467,3.438-4.922
		c0.138-0.308,0.271-0.601,0.4-0.872c0.353-0.72,1.055-1.867,2.211-2.849h-4.727c0.073,0.508,0.106,1.043,0.069,1.604
		c-0.147,2.422-1.432,4.463-3.104,5.866c-1.017,0.853-2.174,1.468-3.312,1.794c-0.934,0.267-2.424,0.498-4.219,0.091
		c-2.492-0.566-4.176-2.165-6.5-4.377c-0.787-0.748-1.549-1.548-2.262-2.374l-0.098-0.114l0.053-0.14
		c0.307-0.801,0.662-1.576,1.021-2.351h-2.35c-0.438,0.974-0.836,1.917-1.156,2.781C503.121,6.609,508.707,11.807,517.047,15.062z"
		/>
	<polygon fill="#020202" points="374.789,726.342 362.457,731.576 372.648,741.465 	"/>
	<path fill="#020202" d="M329.822,397.627c7.399,10.971,22.346,13.875,33.317,6.477c10.972-7.399,13.875-22.348,6.476-33.317
		c-7.398-10.971-22.347-13.875-33.316-6.475C325.328,371.709,322.422,386.656,329.822,397.627z M339.359,368.848
		c8.469-5.711,20.006-3.469,25.717,5c5.713,8.469,3.471,20.004-4.998,25.717c-8.469,5.713-20.004,3.469-25.717-4.999
		C328.648,386.098,330.893,374.561,339.359,368.848z"/>
	<polygon fill="#020202" points="374.469,725.586 362.104,716.621 362.137,730.82 	"/>
	<polygon fill="#020202" points="339.314,383.873 344.254,380.543 348.121,377.934 345.768,393.441 346.129,393.979 
		347.096,395.408 348.904,398.092 353.844,394.76 356.137,398.156 360.25,395.381 357.959,391.984 362.898,388.652 360.123,384.537 
		355.184,387.869 351.318,390.479 353.672,374.971 353.309,374.436 352.525,373.271 350.533,370.318 345.594,373.652 
		343.303,370.256 339.188,373.031 341.48,376.428 336.539,379.76 	"/>
	<polygon fill="#020202" points="388.158,945.23 394.484,965.658 411.607,952.852 397.496,956.391 	"/>
	<polygon fill="#020202" points="367.271,835.287 383.701,840.004 387.402,834.449 370.973,829.732 	"/>
	<path fill="#020202" d="M394.021,9.739l-32.603,3.428l-1.637,8.144l29.178-3.068c0.158-0.017,0.285,0.127,0.254,0.28l-2.852,13.16
		c-0.088,0.402-0.422,0.703-0.832,0.746L356.5,35.48l-1.637,8.143l32.139-3.377c4.338-0.456,7.914-3.604,8.918-7.849l3.818-16.164
		C400.578,12.678,397.656,9.357,394.021,9.739z"/>
	<polygon fill="#020202" points="353.451,32.146 370.451,30.361 371.799,23.825 354.799,25.612 	"/>
	<polygon fill="#020202" points="44.479,255.672 60.418,249.25 48.382,240.178 	"/>
	<polygon fill="#020202" points="377.562,724.271 386.564,720.453 365.197,715.309 	"/>
	<polygon fill="#020202" points="386.885,721.207 377.885,725.025 375.742,740.15 	"/>
	<polygon fill="#020202" points="397.756,486.969 394.076,482.316 385.578,494.914 389.258,499.566 	"/>
	<polygon fill="#020202" points="8.19,480.547 0,476.553 0,483.367 	"/>
	<polygon fill="#020202" points="0.671,458.707 0,458.939 0,460.082 	"/>
	<path fill="#020202" d="M232.017,555.225c-0.166-0.438-0.345-0.901-0.54-1.401c-0.102-0.263-0.195-0.502-0.287-0.732l3.721-1.354
		c0.156-0.056,0.236-0.228,0.18-0.383l-0.861-2.363c-0.057-0.156-0.227-0.238-0.383-0.18l-3.828,1.393
		c-0.094-0.205-0.176-0.387-0.257-0.547c-1.491-2.949-2.419-4.781-4.492-5.869c-0.368-0.195-2.673-1.359-5.394-0.553
		c-0.678,0.201-2.858,0.846-3.891,3.014c-0.745,1.561-0.488,3.055-0.367,3.607c-0.381-0.365-1.221-1.07-2.48-1.334
		c-2.656-0.556-4.641,1.368-4.768,1.495c-1.289,1.294-1.496,2.892-1.594,3.734c-0.14,1.197,0.033,2.146,0.902,4.584l-3.803,1.383
		c-0.156,0.056-0.234,0.229-0.179,0.386l0.859,2.362c0.056,0.156,0.229,0.234,0.386,0.178l3.826-1.393
		c0.293,0.766,0.57,1.479,0.827,2.135l-3.872,1.406c-0.154,0.059-0.234,0.232-0.178,0.389l0.859,2.359
		c0.056,0.156,0.229,0.238,0.385,0.182l3.965-1.444c0.068,0.164,0.127,0.303,0.172,0.418c0.912,2.231,1.439,3.518,1.934,4.776
		c0.059,0.154,0.227,0.226,0.381,0.17l2.756-1.002c0.156-0.059,0.236-0.229,0.178-0.385l-1.049-2.891
		c-0.059-0.156,0.021-0.328,0.178-0.388l14.695-5.35c0.156-0.055,0.329,0.023,0.385,0.18l0.777,2.441
		c0.049,0.137,0.195,0.219,0.339,0.19c0.911-0.178,1.753-0.396,2.651-0.581c0.161-0.033,0.266-0.187,0.236-0.349
		c-0.102-0.561-0.256-1.297-0.482-2.225c-0.162-0.666-0.381-1.621-0.836-3.131l3.689-1.343c0.156-0.059,0.236-0.229,0.178-0.387
		l-0.859-2.359c-0.056-0.155-0.229-0.237-0.385-0.18L232.017,555.225z M218.273,560.225l-5.355,1.949
		c-0.156,0.06-0.33-0.021-0.387-0.178l-0.961-2.646c-0.135-0.338-0.869-2.092-0.008-3.635c0.166-0.297,0.643-0.926,1.428-1.233
		c1.019-0.4,2.031,0.028,2.459,0.243c1.365,0.689,1.883,2.045,2.043,2.472l0.963,2.643
		C218.511,559.996,218.43,560.17,218.273,560.225z M228.195,556.615l-6.289,2.287c-0.156,0.057-0.326-0.021-0.385-0.179
		c-0.406-1.12-0.906-2.52-1.221-3.354c-0.439-1.172-1.305-3.111-0.174-4.648c0.193-0.26,0.659-1.002,1.707-1.373
		c1.309-0.467,2.748,0.289,3.203,0.599c1.025,0.701,1.689,1.826,1.898,2.334l1.434,3.938
		C228.436,556.377,228.354,556.557,228.195,556.615z"/>
	<polygon fill="#020202" points="14.88,669.775 19.354,684.127 25.052,661.24 1.523,662.877 	"/>
	<polygon fill="#020202" points="65.867,987.256 40.682,976.285 53.96,990.006 	"/>
	<polygon fill="#020202" points="246.896,446.846 260.559,441.846 239.199,440.869 245.439,461.322 	"/>
	<polygon fill="#020202" points="36.589,977.23 33.548,994.717 49.866,990.951 	"/>
	<path fill="#020202" d="M39.365,777.086c0.557,0.398,1.345,0.98,2.671,1.834l-1.926,3.418c-0.081,0.146-0.029,0.328,0.116,0.41
		l2.19,1.232c0.144,0.081,0.327,0.028,0.408-0.113l1.918-3.412c0.411,0.225,0.85,0.463,1.323,0.713
		c0.245,0.131,0.475,0.254,0.694,0.371l-1.941,3.447c-0.081,0.146-0.029,0.33,0.115,0.41l2.191,1.233
		c0.143,0.082,0.327,0.029,0.408-0.113l1.997-3.553c0.203,0.099,0.388,0.181,0.55,0.248c3.054,1.271,4.951,2.055,7.233,1.533
		c0.405-0.094,2.913-0.713,4.451-3.092c0.385-0.597,1.62-2.508,0.993-4.824c-0.451-1.668-1.616-2.635-2.072-2.977
		c0.526,0.028,1.623,0.018,2.751-0.603c2.378-1.309,2.632-4.062,2.645-4.238c0.137-1.821-0.747-3.17-1.222-3.873
		c-0.674-1-1.423-1.608-3.669-2.891l1.984-3.525c0.081-0.146,0.03-0.329-0.114-0.409l-2.19-1.234
		c-0.146-0.082-0.327-0.029-0.409,0.113l-1.997,3.549c-0.719-0.387-1.397-0.748-2.018-1.078l2.021-3.59
		c0.079-0.146,0.029-0.328-0.116-0.41l-2.19-1.234c-0.144-0.079-0.327-0.028-0.408,0.115l-2.07,3.683
		c-0.158-0.082-0.293-0.15-0.402-0.205c-2.146-1.103-3.382-1.736-4.578-2.371c-0.144-0.078-0.317-0.021-0.397,0.121l-1.44,2.555
		c-0.081,0.145-0.029,0.33,0.115,0.41l2.681,1.508c0.146,0.082,0.195,0.264,0.114,0.41l-7.671,13.629
		c-0.081,0.145-0.264,0.195-0.408,0.115l-2.177-1.349c-0.128-0.071-0.293-0.039-0.384,0.074c-0.578,0.729-1.072,1.441-1.634,2.168
		c-0.1,0.131-0.08,0.316,0.047,0.416C37.993,776.068,38.587,776.527,39.365,777.086z M51.916,767.715l2.798-4.971
		c0.081-0.146,0.264-0.195,0.408-0.113l2.453,1.379c0.32,0.17,2.021,1.025,2.371,2.754c0.066,0.336,0.115,1.121-0.28,1.865
		c-0.513,0.967-1.562,1.303-2.026,1.416c-1.482,0.365-2.759-0.324-3.157-0.543l-2.451-1.381
		C51.887,768.041,51.836,767.857,51.916,767.715z M46.738,776.914l3.283-5.834c0.081-0.143,0.264-0.195,0.408-0.113
		c1.037,0.582,2.329,1.322,3.11,1.752c1.096,0.603,3.016,1.511,3.159,3.414c0.022,0.318,0.151,1.188-0.402,2.154
		c-0.688,1.201-2.275,1.57-2.818,1.629c-1.235,0.137-2.473-0.287-2.964-0.535l-3.651-2.053
		C46.712,777.25,46.655,777.061,46.738,776.914z"/>
	<polygon fill="#020202" points="0.112,596.576 5.965,597.666 2.529,590.703 21.367,593.395 19.983,580.229 19.749,578.004 
		16.849,550.4 6.927,549 9.826,576.586 0,575.182 0,596.352 	"/>
	<polygon fill="#020202" points="35.374,977.51 13.901,999.254 32.334,994.996 	"/>
	<polygon fill="#020202" points="15.366,687.475 11.315,672.768 0,667.393 0,678.258 0.7,681.674 	"/>
	<path fill="#020202" d="M40.679,791.898c11.531,6.489,26.194,2.389,32.686-9.142c6.491-11.533,2.39-26.199-9.144-32.688
		c-11.532-6.49-26.195-2.39-32.686,9.145C25.044,770.746,29.146,785.406,40.679,791.898z M63.093,752.074
		c10.426,5.869,14.136,19.127,8.267,29.553c-5.868,10.428-19.126,14.135-29.553,8.27c-10.427-5.868-14.136-19.129-8.269-29.555
		C39.407,749.916,52.664,746.205,63.093,752.074z"/>
	<path fill="#020202" d="M211.792,534.844c-12.435,4.525-18.87,18.324-14.343,30.763c4.525,12.436,18.324,18.87,30.759,14.342
		c12.437-4.523,18.87-18.326,14.346-30.763C238.027,536.752,224.227,530.316,211.792,534.844z M227.422,577.787
		c-11.242,4.092-23.721-1.728-27.812-12.969c-4.092-11.244,1.727-23.722,12.969-27.812c11.242-4.091,23.721,1.725,27.812,12.969
		C244.482,561.217,238.664,573.695,227.422,577.787z"/>
	<polygon fill="#020202" points="176.794,402.646 173.68,406.93 171.243,410.285 168.494,396.617 168.029,396.279 167.021,395.547 
		164.46,393.686 161.346,397.971 158.4,395.83 155.808,399.398 158.753,401.539 155.642,405.824 159.209,408.418 162.322,404.133 
		164.759,400.777 167.508,414.447 167.974,414.785 169.216,415.688 171.543,417.379 174.655,413.092 177.601,415.234 
		180.195,411.664 177.249,409.523 180.361,405.238 	"/>
	<path fill="#020202" d="M166.701,845.566l3.387-2.197l2.2,3.385l2.868,4.418c3.406-6.588,3.281-14.766-1.047-21.432
		c-4.329-6.664-11.749-10.105-19.153-9.676l2.869,4.418l2.199,3.389l-3.387,2.201l-6.23,4.045l12.779,2.715l-2.716,12.781
		L166.701,845.566z"/>
	<polygon fill="#020202" points="60.974,248.514 62.751,231.424 48.938,239.443 	"/>
	<polygon fill="#020202" points="48.042,238.768 61.855,230.747 34.443,228.523 	"/>
	<polygon fill="#020202" points="47.5,257.947 72.224,258.145 63.439,251.525 	"/>
	<polygon fill="#020202" points="43.584,254.995 47.485,239.504 33.889,229.258 	"/>
	<polygon fill="#020202" points="263.413,444.059 250.581,449.707 248.291,463.537 260.311,457.26 	"/>
	<path fill="#020202" d="M112.106,31.839c-1.699,6.035-3.179,15.458-0.725,26.377c2.695,11.989,8.87,20.396,13.628,25.371
		c6.077-1.546,14.978-4.977,23.205-12.562c9.038-8.325,13.228-17.879,15.159-24.485c-4.378-4.491-11.8-10.483-22.482-13.817
		C129.163,29.064,118.794,30.208,112.106,31.839z M140.791,69.714c-0.212,1.194-0.767,2.996-2.209,4.791
		c-2.002,2.489-4.718,3.503-8.479,4.906c-1.276,0.475-2.591,0.892-3.908,1.238l-0.182,0.047l-0.127-0.137
		c-3.913-4.183-7.007-8.971-9.199-14.236c-1.67-4.017-2.783-8.249-3.305-12.578l-0.104-0.871l0.633,0.605
		c1.263,1.211,3.396,2.836,6.375,3.705c3.672,1.07,6.516,0.455,8.593,0.006l0.079-0.016c0.102-0.023,0.176-0.041,0.219-0.046
		c1.661-0.208,4.142-0.174,6.526,1.179C139.944,60.716,141.473,65.867,140.791,69.714z M148.721,39.326
		c3.159,0.488,5.396,2.334,8.488,4.891c1.048,0.864,2.066,1.796,3.027,2.766l0.132,0.132l-0.056,0.179
		c-1.665,5.48-4.266,10.556-7.729,15.085c-2.645,3.459-5.754,6.538-9.241,9.153l-0.702,0.526l0.209-0.852
		c0.416-1.701,0.758-4.36,0.021-7.375c-0.919-3.761-2.812-5.825-4.334-7.483l-0.08-0.088c-1.058-1.375-2.3-3.571-2.32-6.341
		c-0.023-3.034,1.399-5.69,3.362-7.585c1.191-1.152,2.583-2.021,3.972-2.526C144.609,39.395,146.447,38.975,148.721,39.326z
		 M144.572,37.034l-0.842,0.246c-1.682,0.49-4.155,1.525-6.396,3.669v0.001c-0.024,0.023-0.049,0.048-0.075,0.07
		c-2.32,2.241-3.172,4.565-3.857,6.438c-0.145,0.396-0.283,0.771-0.425,1.123c-0.519,1.283-1.771,3.659-4.324,5.158
		c-4.204,2.469-9.432,1.218-12.422-1.297c-0.928-0.781-2.21-2.162-3.044-4.309c-1.157-2.979-0.675-5.838-0.01-9.795
		c0.229-1.348,0.524-2.695,0.883-4.006l0.049-0.181l0.182-0.042c5.58-1.297,11.276-1.582,16.929-0.847
		c4.316,0.561,8.537,1.714,12.548,3.427L144.572,37.034z"/>
	<polygon fill="#020202" points="63.994,250.789 72.778,257.41 65.771,233.699 	"/>
	<polygon fill="#020202" points="267.068,446.898 263.579,459.797 251.945,466.375 272.902,467.035 	"/>
	<path fill="#020202" d="M190.838,983.984c13.225-0.463,23.607-11.597,23.146-24.82c-0.461-13.227-11.597-23.611-24.822-23.148
		s-23.608,11.597-23.146,24.824C166.478,974.062,177.612,984.447,190.838,983.984z M189.354,941.488
		c10.209-0.359,18.803,7.655,19.16,17.867c0.355,10.209-7.656,18.803-17.867,19.155c-10.209,0.359-18.804-7.655-19.16-17.862
		C171.13,950.439,179.146,941.842,189.354,941.488z"/>
	<polygon fill="#020202" points="229.084,660.121 231.88,657.125 228.25,653.74 225.457,656.738 221.099,652.672 217.713,656.303 
		222.07,660.367 225.48,663.549 209.844,664.742 209.402,665.215 208.225,666.479 206.018,668.844 210.373,672.91 207.58,675.904 
		211.211,679.291 214.006,676.295 218.361,680.357 221.748,676.729 217.391,672.662 213.979,669.482 229.617,668.287 
		230.059,667.816 231.016,666.791 233.445,664.186 	"/>
	<path fill="#020202" d="M273.074,57.393l-2.947,4.367l-2.258,3.348l-3.35-2.259l-6.158-4.154l2.493,12.827l-12.827,2.492
		l6.16,4.155l3.35,2.258l-2.262,3.35l-2.943,4.366c7.395,0.561,14.875-2.75,19.318-9.339
		C276.096,72.215,276.365,64.04,273.074,57.393z"/>
	<polygon fill="#020202" points="274.266,225.676 265.891,237.144 273.684,250.115 	"/>
	<path fill="#020202" d="M185.261,418.07c6.915-9.517,4.796-22.883-4.721-29.797s-22.884-4.797-29.798,4.719
		c-6.914,9.518-4.797,22.883,4.72,29.799C164.979,429.705,178.347,427.588,185.261,418.07z M158.323,418.852
		c-7.347-5.336-8.98-15.651-3.644-22.998c5.336-7.346,15.654-8.98,22.999-3.643c7.348,5.336,8.981,15.654,3.645,23
		C175.986,422.555,165.669,424.191,158.323,418.852z"/>
	<path fill="#020202" d="M265.894,49.188c-9.769-6.588-23.027-4.012-29.614,5.757c-6.59,9.77-4.012,23.027,5.754,29.616
		c1.881,1.268,3.893,2.192,5.957,2.796l3.938-5.84l-9.509-6.412l-4.617-3.115l18.433-3.583l-3.581-18.434l4.616,3.115l9.509,6.412
		l3.936-5.838C269.383,51.973,267.773,50.456,265.894,49.188z"/>
	<path fill="#020202" d="M79.212,893.307l-28.511,15.806c-0.154,0.084-0.345-0.004-0.379-0.177l-2.798-14.696
		c-0.086-0.449,0.127-0.904,0.527-1.127l28.369-15.726l-1.863-9.037l-31.403,17.406c-4.238,2.35-6.53,7.121-5.713,11.9l3.11,18.188
		c0.686,4.002,5.115,6.127,8.665,4.16l31.859-17.658L79.212,893.307z"/>
	<polygon fill="#020202" points="273.752,224.822 258.477,224.805 265.379,236.289 	"/>
	<polygon fill="#020202" points="256.746,221.924 272.02,221.941 251.711,213.543 	"/>
	<polygon fill="#020202" points="248.887,235.84 256.043,222.346 251.008,213.965 	"/>
	<polygon fill="#020202" points="257.773,225.227 250.617,238.721 264.676,236.711 	"/>
	<path fill="#020202" d="M237.283,682.885c9.025-9.678,8.493-24.896-1.185-33.924c-9.681-9.023-24.896-8.492-33.921,1.186
		c-9.025,9.683-8.494,24.896,1.184,33.923C213.042,693.092,228.26,692.562,237.283,682.885z M207.098,680.064
		c-7.471-6.966-7.881-18.714-0.916-26.185c6.968-7.469,18.713-7.881,26.182-0.912c7.471,6.967,7.881,18.711,0.916,26.183
		C226.311,686.621,214.568,687.031,207.098,680.064z"/>
	<polygon fill="#020202" points="265.188,237.566 251.131,239.575 272.98,250.539 	"/>
	<polygon fill="#020202" points="202.612,142.197 201.076,148.216 191.027,136.782 185.022,145.503 184.006,146.978 
		171.411,165.262 176.712,171.274 189.299,153.001 197.485,162.316 195.857,168.713 198.846,172.419 200.537,165.788 
		213.049,180.029 220.07,169.832 204.129,151.689 205.604,145.903 	"/>
	<path fill="#020202" d="M103.977,476.41l6.461,27.988c0.873,3.778,4.038,6.594,7.891,7.018l14.675,1.617
		c3.228,0.358,5.842-2.58,5.11-5.744l-6.556-28.395l-7.361-0.56l5.867,25.41c0.031,0.137-0.08,0.264-0.22,0.252l-11.919-1.09
		c-0.364-0.033-0.667-0.297-0.75-0.652l-5.837-25.285L103.977,476.41z"/>
	<path fill="#020202" d="M219.734,348.404c5.5,3.016,14.35,6.576,25.539,6.641c12.287,0.068,21.867-4.055,27.785-7.57
		c-0.137-6.268-1.479-15.713-7.019-25.438c-6.081-10.676-14.446-16.91-20.449-20.277c-5.358,3.256-12.868,9.139-18.519,18.797
		C220.861,331.162,219.65,341.521,219.734,348.404z M267.264,332.205c1.977,2.512,2.354,5.389,2.871,9.363
		c0.178,1.357,0.287,2.732,0.326,4.09l0.008,0.188l-0.164,0.094c-4.953,2.873-10.316,4.809-15.939,5.76
		c-4.292,0.727-8.664,0.855-13,0.391l-0.872-0.094l0.735-0.479c1.462-0.961,3.525-2.674,5.041-5.381h0.002
		c0.016-0.027,0.032-0.059,0.049-0.088c1.565-2.822,1.699-5.295,1.807-7.285c0.025-0.42,0.047-0.82,0.078-1.201
		c0.123-1.375,0.625-4.014,2.627-6.193c3.301-3.592,8.665-3.924,12.259-2.393C264.207,329.451,265.838,330.396,267.264,332.205z
		 M235.266,314.414c1.188-2.965,3.489-4.73,6.676-7.172c1.081-0.828,2.217-1.611,3.373-2.326l0.162-0.098l0.16,0.092
		c4.967,2.857,9.326,6.531,12.959,10.926c2.773,3.352,5.074,7.074,6.839,11.062l0.354,0.803l-0.781-0.395
		c-1.562-0.787-4.078-1.719-7.181-1.678c-3.825,0.049-6.364,1.467-8.22,2.506l-0.068,0.039c-0.091,0.051-0.156,0.09-0.198,0.107
		c-1.528,0.684-3.911,1.377-6.585,0.779c-4.76-1.062-7.729-5.541-8.203-9.418C234.406,318.436,234.412,316.553,235.266,314.414z
		 M232.102,317.941l0.049,0.875c0.098,1.746,0.553,4.391,2.137,7.059c1.98,3.328,4.393,4.746,6.33,5.887l0.105,0.062
		c1.414,1.006,3.244,2.742,4.074,5.387c0.908,2.893,0.322,5.85-0.998,8.234c-0.803,1.451-1.88,2.689-3.059,3.576
		c-0.973,0.73-2.605,1.668-4.883,1.998c-3.164,0.457-5.843-0.654-9.549-2.195c-1.255-0.52-2.5-1.113-3.703-1.758l-0.164-0.09v-0.188
		c-0.01-5.727,0.994-11.34,2.98-16.686c1.52-4.08,3.592-7.934,6.162-11.455L232.102,317.941z"/>
	<polygon fill="#020202" points="80.986,879.473 64.373,888.682 65.833,895.951 82.444,886.742 	"/>
	<path fill="#020202" d="M94.114,393.609c4.819-2.785,6.472-8.945,3.688-13.766c-2.784-4.821-8.945-6.469-13.763-3.688
		c-2.221,1.281-3.757,3.281-4.509,5.535c-0.317,0.48-0.735,0.904-1.268,1.211c-1.841,1.062-4.194,0.434-5.258-1.408
		c-0.608-1.055-0.652-2.275-0.239-3.326c1.936-3.066,2.153-7.07,0.215-10.428c-2.781-4.816-8.943-6.469-13.763-3.686
		c-4.819,2.781-6.47,8.943-3.688,13.762c2.258,3.908,6.737,5.734,10.92,4.797c1.307,0.082,2.549,0.785,3.252,2.002
		c1.115,1.932,0.454,4.402-1.479,5.518c-0.349,0.201-0.716,0.338-1.089,0.424c-2.08-0.244-4.251,0.145-6.203,1.271
		c-4.819,2.783-6.471,8.945-3.688,13.764c2.781,4.818,8.943,6.472,13.763,3.689c4.819-2.783,6.472-8.945,3.688-13.766
		c-0.393-0.678-0.856-1.287-1.371-1.836c-0.596-1.814,0.137-3.859,1.855-4.852c1.633-0.941,3.638-0.639,4.927,0.611
		c0.082,0.16,0.155,0.322,0.246,0.48C83.133,394.74,89.295,396.391,94.114,393.609z"/>
	<polygon fill="#020202" points="123.278,489.205 119.86,474.4 113.948,473.922 117.366,488.727 	"/>
	<polygon fill="#020202" points="179.245,968.822 184.206,968.648 183.997,962.691 183.835,958.031 195.737,968.246 
		196.385,968.223 198.11,968.164 201.346,968.051 201.135,962.094 205.232,961.949 205.059,956.992 200.965,957.135 
		200.754,951.178 195.793,951.354 196.004,957.309 196.164,961.969 184.263,951.754 183.616,951.777 182.215,951.826 
		178.655,951.949 178.864,957.906 174.769,958.051 174.943,963.008 179.036,962.867 	"/>
	<path fill="#020202" d="M109.312,605.787c9.764-1.139,16.968-5.353,21.325-8.721c-0.722-4.964-2.709-12.334-8.054-19.513
		c-5.871-7.883-13.12-12.021-18.215-14.106c-3.938,3.104-9.326,8.51-12.872,16.731c-3.894,9.025-3.85,17.369-3.11,22.824
		C93.047,604.863,100.42,606.826,109.312,605.787z M127.739,592.666c0.271,1.051,0.493,2.133,0.659,3.213l0.022,0.146l-0.12,0.092
		c-3.654,2.764-7.725,4.824-12.097,6.129c-3.336,0.992-6.797,1.523-10.284,1.576l-0.702,0.012l0.536-0.451
		c1.069-0.906,2.54-2.469,3.481-4.766c1.173-2.865,0.918-5.092,0.713-6.879l-0.01-0.099c-0.038-1.387,0.19-3.393,1.479-5.194
		c1.412-1.974,3.582-3.023,5.742-3.326c1.313-0.187,2.623-0.096,3.758,0.229c0.935,0.271,2.321,0.863,3.626,2.158
		C126.36,587.311,126.938,589.557,127.739,592.666z M97.404,574.502c0.652-2.475,2.31-4.098,4.6-6.344
		c0.781-0.767,1.606-1.498,2.454-2.178l0.117-0.097l0.139,0.06c4.22,1.785,8.04,4.276,11.354,7.412
		c2.529,2.393,4.721,5.125,6.509,8.118l0.36,0.603l-0.659-0.236c-1.318-0.477-3.407-0.967-5.864-0.635h-0.002
		c-0.026,0.002-0.054,0.01-0.081,0.012c-2.556,0.359-4.201,1.463-5.524,2.353c-0.28,0.188-0.545,0.366-0.804,0.526
		c-0.939,0.588-2.865,1.535-5.224,1.306c-3.883-0.377-6.676-3.646-7.43-6.681C97.116,577.779,96.934,576.283,97.404,574.502z
		 M91.116,587.916c0.808-3.381,2.079-6.643,3.776-9.693l0.342-0.61l0.125,0.688c0.249,1.377,0.864,3.433,2.385,5.396
		c1.872,2.422,4.002,3.36,5.559,4.045l0.059,0.026c0.076,0.031,0.132,0.06,0.162,0.074c1.174,0.646,2.764,1.836,3.671,3.832
		c1.612,3.551,0.179,7.607-2.07,9.775c-0.7,0.674-1.906,1.578-3.684,2.061c-2.466,0.67-4.7,0.049-7.795-0.811
		c-1.05-0.293-2.096-0.644-3.111-1.039l-0.141-0.053l-0.018-0.148C89.812,596.91,90.061,592.357,91.116,587.916z"/>
	<path fill="#020202" d="M146.702,258.848c-11.461,2.646-18.633,14.123-15.986,25.586c2.646,11.463,14.123,18.635,25.585,15.988
		c11.461-2.646,18.634-14.125,15.987-25.586C169.642,263.374,158.164,256.203,146.702,258.848z M155.842,298.43
		c-10.363,2.393-20.741-4.092-23.134-14.455c-2.393-10.363,4.092-20.74,14.455-23.133c10.363-2.393,20.74,4.092,23.133,14.453
		C172.688,285.659,166.204,296.037,155.842,298.43z"/>
	<path fill="#020202" d="M167.837,859.252c1.901-1.234,3.537-2.725,4.899-4.389l-3.835-5.908l-9.617,6.246l-4.673,3.035
		l3.904-18.369l-18.369-3.904l4.673-3.033l9.617-6.246l-3.836-5.907c-2.075,0.567-4.1,1.456-6.001,2.69
		c-9.883,6.42-12.69,19.629-6.272,29.512C144.743,862.857,157.956,865.668,167.837,859.252z"/>
	<path fill="#020202" d="M497.959,906.469l-9.711-8.744l8.744-9.711l-7.418,0.39l-4.033,0.211l-0.213-4.033l-0.273-5.26
		c-6.246,4.004-10.227,11.147-9.811,19.084c0.416,7.938,5.123,14.629,11.75,17.957l-0.275-5.263l-0.211-4.033l4.033-0.211
		L497.959,906.469z"/>
	<path fill="#020202" d="M934.518,31.585c-0.553-0.25-1.344-0.62-2.647-1.129l1.076-3.317c0.047-0.142-0.029-0.291-0.168-0.337
		l-2.127-0.69c-0.14-0.045-0.294,0.031-0.339,0.171l-1.073,3.308c-0.396-0.124-0.816-0.254-1.275-0.389
		c-0.238-0.072-0.459-0.137-0.672-0.2l1.088-3.347c0.045-0.14-0.029-0.291-0.17-0.337l-2.125-0.69
		c-0.141-0.045-0.293,0.031-0.338,0.171l-1.117,3.444c-0.195-0.049-0.367-0.09-0.522-0.119c-2.886-0.569-4.677-0.923-6.57-0.066
		c-0.338,0.153-2.414,1.13-3.34,3.474c-0.23,0.586-0.974,2.467-0.021,4.378c0.685,1.374,1.873,2.012,2.328,2.229
		c-0.465,0.066-1.416,0.27-2.291,1.009c-1.844,1.555-1.582,3.999-1.562,4.157c0.2,1.611,1.206,2.632,1.743,3.16
		c0.763,0.752,1.521,1.152,3.705,1.877l-1.112,3.42c-0.047,0.14,0.03,0.291,0.172,0.337l2.125,0.689
		c0.141,0.046,0.291-0.03,0.336-0.171l1.117-3.442c0.694,0.214,1.35,0.41,1.948,0.588l-1.133,3.483
		c-0.045,0.14,0.033,0.291,0.172,0.337l2.127,0.689c0.14,0.046,0.289-0.03,0.334-0.171l1.16-3.569
		c0.152,0.043,0.283,0.078,0.388,0.107c2.063,0.583,3.252,0.918,4.403,1.264c0.142,0.04,0.283-0.036,0.326-0.175l0.807-2.48
		c0.045-0.14-0.032-0.289-0.172-0.337l-2.602-0.845c-0.142-0.045-0.215-0.195-0.17-0.335l4.295-13.221
		c0.045-0.142,0.197-0.219,0.338-0.173l2.133,0.793c0.123,0.04,0.26-0.019,0.318-0.134c0.377-0.735,0.684-1.443,1.045-2.175
		c0.063-0.13,0.016-0.289-0.113-0.356C935.893,32.231,935.293,31.936,934.518,31.585z M923.656,46.772
		c-0.047,0.142-0.195,0.218-0.336,0.173l-2.379-0.773c-0.312-0.091-1.941-0.539-2.55-1.985c-0.116-0.28-0.297-0.957-0.086-1.675
		c0.277-0.933,1.138-1.408,1.519-1.589c1.229-0.578,2.465-0.202,2.848-0.08l2.381,0.773c0.14,0.044,0.215,0.195,0.172,0.335
		L923.656,46.772z M926.285,38.685c-0.045,0.141-0.197,0.217-0.338,0.171c-1.006-0.327-2.261-0.742-3.019-0.979
		c-1.059-0.334-2.891-0.788-3.35-2.422c-0.078-0.276-0.342-1.009-0.029-1.948c0.392-1.169,1.709-1.766,2.174-1.914
		c1.054-0.335,2.205-0.184,2.675-0.054l3.545,1.15c0.143,0.043,0.227,0.195,0.178,0.339L926.285,38.685z"/>
	<path fill="#020202" d="M955.729,280.955c6.431-4.671,9.48-12.262,8.66-19.635l-4.262,3.096l-3.268,2.376l-2.373-3.269
		l-4.369-6.009l-2.041,12.905l-12.906-2.043l4.365,6.01l2.375,3.268l-3.269,2.373l-4.262,3.096
		C941.139,286.18,949.301,285.627,955.729,280.955z"/>
	<path fill="#020202" d="M930.777,18.906c-11.188-3.636-23.244,2.51-26.881,13.696c-3.638,11.186,2.51,23.247,13.694,26.882
		c11.188,3.634,23.248-2.51,26.885-13.696C948.109,34.6,941.967,22.541,930.777,18.906z M942.529,45.156
		c-3.287,10.114-14.189,15.669-24.304,12.383c-10.116-3.286-15.672-14.189-12.387-24.305c3.287-10.114,14.189-15.671,24.308-12.383
		C940.26,24.138,945.816,35.041,942.529,45.156z"/>
	<path fill="#020202" d="M985.473,458.6l-2.143-6.223c-6.123,6.959-8.447,16.916-5.211,26.312
		c3.234,9.395,11.193,15.811,20.305,17.524l-2.145-6.225l-1.646-4.773l4.775-1.645l0.59-0.203v-6.814l-6.49-3.166l6.49-13.305
		v-1.143l-8.109,2.791l-4.774,1.645L985.473,458.6z"/>
	<path fill="#020202" d="M990.248,456.957l9.752-3.359v-10.051c-1.787,0.228-3.578,0.635-5.348,1.244
		c-2.681,0.924-5.115,2.234-7.273,3.842L990.248,456.957z"/>
	<path fill="#020202" d="M947.738,247.365l3.272,4.508l6.742,9.277l5.697-4.141c-0.674-2.041-1.67-4.02-3.002-5.853
		c-6.929-9.534-20.269-11.646-29.799-4.72c-9.531,6.924-11.646,20.267-4.72,29.801c1.33,1.83,2.902,3.389,4.64,4.662l5.698-4.141
		l-6.741-9.277l-3.273-4.506l18.547,2.937L947.738,247.365z"/>
	<path fill="#020202" d="M902.865,353.238l3.512-0.875c0.189,0.703,0.367,1.363,0.533,1.965l-3.551,0.885
		c-0.144,0.037-0.23,0.182-0.195,0.324l0.541,2.168c0.035,0.143,0.178,0.229,0.322,0.193l3.643-0.906
		c0.045,0.15,0.08,0.279,0.113,0.385c0.6,2.057,0.942,3.244,1.264,4.404c0.039,0.139,0.178,0.219,0.318,0.184l2.528-0.631
		c0.144-0.035,0.23-0.182,0.195-0.322l-0.66-2.654c-0.037-0.143,0.052-0.287,0.195-0.324l13.488-3.361
		c0.141-0.037,0.287,0.051,0.321,0.193l0.459,2.229c0.029,0.127,0.154,0.213,0.281,0.201c0.822-0.072,1.588-0.188,2.398-0.268
		c0.146-0.014,0.254-0.139,0.24-0.285c-0.039-0.506-0.104-1.17-0.218-2.012c-0.082-0.605-0.188-1.469-0.446-2.846l3.383-0.844
		c0.143-0.035,0.229-0.18,0.194-0.322l-0.541-2.168c-0.034-0.145-0.178-0.232-0.321-0.195l-3.375,0.84
		c-0.104-0.402-0.22-0.83-0.347-1.289c-0.067-0.238-0.127-0.461-0.186-0.674l3.412-0.852c0.143-0.035,0.229-0.18,0.194-0.322
		l-0.541-2.168c-0.034-0.145-0.178-0.232-0.321-0.195l-3.513,0.875c-0.062-0.189-0.12-0.357-0.176-0.506
		c-1.049-2.746-1.695-4.451-3.428-5.607c-0.309-0.205-2.236-1.449-4.713-0.99c-0.619,0.115-2.607,0.482-3.726,2.303
		c-0.801,1.309-0.717,2.654-0.657,3.156c-0.304-0.359-0.979-1.059-2.07-1.41c-2.295-0.738-4.229,0.779-4.352,0.879
		c-1.261,1.023-1.593,2.418-1.759,3.154c-0.229,1.045-0.17,1.898,0.375,4.135l-3.489,0.869c-0.144,0.037-0.23,0.182-0.195,0.322
		l0.541,2.17C902.578,353.188,902.725,353.275,902.865,353.238z M917.398,344.113c0.192-0.213,0.674-0.826,1.639-1.057
		c1.197-0.289,2.402,0.514,2.772,0.826c0.841,0.715,1.324,1.773,1.466,2.24l0.897,3.615c0.041,0.145-0.043,0.297-0.188,0.334
		l-5.771,1.438c-0.143,0.037-0.289-0.051-0.326-0.195c-0.254-1.025-0.565-2.311-0.768-3.078
		C916.842,347.162,916.256,345.367,917.398,344.113z M909.365,347.73c0.172-0.246,0.649-0.758,1.377-0.957
		c0.934-0.26,1.793,0.215,2.147,0.445c1.144,0.734,1.476,1.98,1.576,2.371l0.605,2.428c0.034,0.143-0.05,0.287-0.193,0.322
		l-4.918,1.229c-0.143,0.035-0.289-0.053-0.326-0.195l-0.604-2.428C908.945,350.635,908.461,349.014,909.365,347.73z"/>
	<polygon fill="#020202" points="999.561,360.369 1000,359.807 1000,348.562 999.971,348.574 987.832,342.992 	"/>
	<path fill="#020202" d="M874.596,418.457l-15.676-5.488c-3.447-1.207-7.055,1.353-7.055,5.006v32.783l7.926,2.478v-29.341
		c0-0.157,0.156-0.268,0.307-0.219l12.789,4.211c0.392,0.127,0.654,0.492,0.654,0.904v29.193l7.928,2.477v-32.314
		C881.469,423.785,878.715,419.898,874.596,418.457z"/>
	<polygon fill="#020202" points="863.59,550.277 873.061,535.268 856.537,532.535 	"/>
	<polygon fill="#020202" points="870.318,517.197 874.457,534.457 893.121,537.543 	"/>
	<polygon fill="#020202" points="874.291,535.469 864.82,550.479 892.955,538.551 	"/>
	<path fill="#020202" d="M892.506,624.277l4.623-5.316c-1.119-1.838-2.533-3.537-4.244-5.025
		c-8.891-7.729-22.367-6.791-30.096,2.104c-7.73,8.893-6.787,22.365,2.104,30.098c1.713,1.486,3.595,2.648,5.57,3.498l4.621-5.313
		l-8.654-7.523l-4.207-3.656l18.734-1.309l-1.309-18.732l4.202,3.654L892.506,624.277z"/>
	<polygon fill="#020202" points="863.549,441.549 863.549,458.643 869.908,460.668 869.908,443.572 	"/>
	<polygon fill="#020202" points="873.229,534.254 869.092,516.992 856.705,531.523 	"/>
	<path fill="#020202" d="M895.967,355.16c2.846,11.416,14.447,18.385,25.859,15.539c11.416-2.846,18.385-14.445,15.541-25.859
		c-2.846-11.416-14.447-18.385-25.859-15.539C900.092,332.145,893.121,343.746,895.967,355.16z M911.998,331.285
		c10.322-2.574,20.811,3.73,23.383,14.049c2.574,10.318-3.727,20.809-14.047,23.381c-10.322,2.574-20.811-3.73-23.381-14.049
		C895.377,344.346,901.68,333.857,911.998,331.285z"/>
	<polygon fill="#020202" points="754.779,738.268 762.162,737.578 754.74,720.094 747.357,720.785 	"/>
	<polygon fill="#020202" points="787.311,606.406 783.174,610.693 779.932,614.049 779.01,598.393 778.545,597.943 777.535,596.967 
		774.975,594.492 770.836,598.779 767.887,595.934 764.439,599.506 767.389,602.35 763.248,606.637 766.82,610.084 770.957,605.797 
		774.199,602.441 775.121,618.1 775.586,618.549 776.826,619.75 779.156,621.998 783.295,617.711 786.24,620.557 789.691,616.986 
		786.742,614.141 790.883,609.854 	"/>
	<polygon fill="#020202" points="1000,344.381 1000,332.4 987.992,338.367 	"/>
	<path fill="#020202" d="M712.598,47.088c-1.487,6.093-2.637,15.563,0.195,26.387c3.111,11.887,9.576,20.073,14.506,24.882
		c6.019-1.758,14.795-5.497,22.754-13.364c8.736-8.64,12.595-18.33,14.293-25.002c-4.53-4.334-12.157-10.063-22.948-13.022
		C729.545,43.716,719.225,45.225,712.598,47.088z M742.584,83.938c-0.168,1.201-0.66,3.021-2.037,4.865
		c-1.914,2.561-4.594,3.667-8.305,5.198c-1.262,0.522-2.562,0.985-3.863,1.376l-0.18,0.054l-0.133-0.132
		c-4.058-4.045-7.314-8.725-9.688-13.908c-1.811-3.958-3.07-8.149-3.744-12.456l-0.133-0.866l0.654,0.583
		c1.305,1.167,3.492,2.717,6.498,3.481h0.002c0.033,0.008,0.065,0.017,0.098,0.024c3.133,0.781,5.555,0.271,7.508-0.139
		c0.41-0.088,0.802-0.169,1.179-0.235c1.36-0.239,4.039-0.438,6.664,0.934C741.426,74.976,743.135,80.071,742.584,83.938z
		 M749.449,53.294c3.174,0.38,5.473,2.146,8.656,4.59c1.077,0.83,2.129,1.726,3.12,2.66l0.138,0.127l-0.049,0.181
		c-1.476,5.533-3.896,10.698-7.199,15.347c-2.521,3.545-5.521,6.729-8.916,9.468l-0.685,0.55l0.179-0.859
		c0.358-1.712,0.604-4.38-0.236-7.368c-1.035-3.682-3.064-5.769-4.549-7.292l-0.056-0.057c-0.071-0.073-0.127-0.129-0.151-0.163
		c-1.06-1.299-2.344-3.419-2.461-6.157c-0.205-4.873,3.354-8.901,6.975-10.361C745.342,53.506,747.164,53.022,749.449,53.294z
		 M745.225,51.149l-0.834,0.273c-1.662,0.548-4.098,1.668-6.262,3.89c-2.705,2.773-3.451,5.474-4.051,7.642l-0.031,0.115
		c-0.604,1.625-1.811,3.843-4.148,5.329c-2.561,1.626-5.567,1.828-8.215,1.167c-1.608-0.4-3.084-1.118-4.246-2.029
		c-0.957-0.747-2.284-2.084-3.192-4.198c-1.26-2.939-0.879-5.813-0.353-9.79c0.181-1.348,0.431-2.705,0.742-4.033l0.043-0.182
		l0.183-0.049c5.526-1.491,11.211-1.975,16.889-1.438c4.332,0.41,8.594,1.414,12.66,2.986L745.225,51.149z"/>
	<path fill="#020202" d="M793.736,590.982c-9.519-9.191-24.742-8.929-33.937,0.594c-9.19,9.518-8.926,24.742,0.595,33.936
		c9.518,9.189,24.741,8.926,33.936-0.594C803.521,615.396,803.256,600.176,793.736,590.982z M764.195,621.572
		c-7.347-7.097-7.552-18.849-0.455-26.195c7.096-7.346,18.844-7.551,26.194-0.459c7.347,7.098,7.552,18.848,0.455,26.195
		C783.295,628.463,771.547,628.668,764.195,621.572z"/>
	<path fill="#020202" d="M772.652,154.167l-3.082,2.408c-0.293-0.366-0.605-0.752-0.943-1.165c-0.18-0.217-0.342-0.417-0.502-0.608
		l3.119-2.438c0.133-0.101,0.156-0.29,0.051-0.422l-1.545-1.98c-0.102-0.13-0.291-0.153-0.424-0.052l-3.209,2.508
		c-0.15-0.166-0.287-0.314-0.41-0.439c-2.332-2.346-3.779-3.801-6.088-4.196c-0.41-0.069-2.963-0.465-5.299,1.142
		c-0.584,0.4-2.459,1.689-2.771,4.068c-0.227,1.713,0.479,3.056,0.767,3.544c-0.474-0.229-1.49-0.64-2.771-0.502
		c-2.695,0.292-3.992,2.736-4.072,2.896c-0.828,1.628-0.53,3.215-0.36,4.045c0.235,1.182,0.692,2.031,2.274,4.08l-3.19,2.49
		c-0.129,0.103-0.152,0.292-0.052,0.422l1.55,1.98c0.102,0.131,0.289,0.155,0.42,0.053l3.209-2.507c0.512,0.637,1,1.232,1.444,1.774
		l-3.243,2.535c-0.132,0.103-0.154,0.292-0.054,0.422l1.549,1.98c0.103,0.131,0.291,0.153,0.421,0.053l3.327-2.6
		c0.113,0.135,0.211,0.251,0.289,0.344c1.56,1.841,2.457,2.901,3.316,3.948c0.102,0.125,0.283,0.144,0.414,0.042l2.311-1.807
		c0.131-0.101,0.154-0.289,0.054-0.42l-1.896-2.425c-0.102-0.13-0.078-0.319,0.053-0.422l12.324-9.629
		c0.129-0.103,0.318-0.078,0.42,0.053l1.49,2.081c0.092,0.116,0.254,0.148,0.385,0.077c0.812-0.451,1.543-0.918,2.34-1.372
		c0.144-0.082,0.199-0.259,0.121-0.404c-0.272-0.499-0.645-1.152-1.149-1.968c-0.357-0.581-0.861-1.422-1.761-2.72l3.092-2.415
		c0.132-0.103,0.156-0.291,0.054-0.422l-1.547-1.98C772.973,154.089,772.783,154.065,772.652,154.167z M758.047,165.578
		l-4.492,3.512c-0.131,0.102-0.317,0.078-0.424-0.052l-1.729-2.219c-0.232-0.278-1.474-1.724-1.132-3.455
		c0.068-0.334,0.326-1.077,0.978-1.614c0.848-0.695,1.943-0.6,2.416-0.526c1.51,0.233,2.422,1.361,2.705,1.716l1.731,2.217
		C758.203,165.288,758.18,165.477,758.047,165.578z M766.367,159.08l-5.273,4.12c-0.131,0.101-0.317,0.078-0.42-0.053
		c-0.736-0.938-1.645-2.115-2.201-2.812c-0.776-0.978-2.198-2.555-1.602-4.366c0.104-0.307,0.32-1.156,1.201-1.835
		c1.098-0.846,2.705-0.572,3.229-0.42c1.191,0.351,2.17,1.216,2.529,1.633l2.578,3.303C766.52,158.779,766.5,158.975,766.367,159.08
		z"/>
	<path fill="#020202" d="M744.039,143.442c-10.43,8.147-12.285,23.26-4.137,33.688c8.147,10.428,23.258,12.283,33.688,4.136
		c10.43-8.148,12.285-23.261,4.139-33.688C769.58,137.15,754.467,135.295,744.039,143.442z M772.174,179.453
		c-9.43,7.366-23.092,5.69-30.459-3.74c-7.365-9.427-5.688-23.091,3.74-30.457c9.428-7.367,23.094-5.688,30.459,3.74
		C783.281,158.425,781.602,172.087,772.174,179.453z"/>
	<path fill="#020202" d="M739.404,735.277l9.184-0.908l-12.738-30.008c-0.067-0.162,0.043-0.345,0.22-0.357l14.907-1.246
		c0.455-0.039,0.884,0.221,1.062,0.642l12.676,29.856l9.185-0.908l-14.029-33.051c-1.896-4.463-6.4-7.24-11.238-6.928l-18.414,1.195
		c-4.049,0.26-6.627,4.446-5.043,8.184L739.404,735.277z"/>
	<polygon fill="#020202" points="823.812,773.561 811.104,768.834 815.104,782.27 828.541,786.27 	"/>
	<polygon fill="#020202" points="1000,327.879 1000,319.109 988.119,334.76 	"/>
	<path fill="#020202" d="M851.543,105.042c-0.4,0.051-0.795,0.033-1.172-0.034c-1.816-1.036-3.969-1.528-6.205-1.253
		c-5.523,0.679-9.449,5.705-8.771,11.229c0.677,5.522,5.705,9.45,11.228,8.773c5.522-0.679,9.453-5.707,8.772-11.229
		c-0.096-0.777-0.282-1.52-0.545-2.227c0.164-1.902,1.636-3.497,3.604-3.74c1.873-0.229,3.598,0.834,4.297,2.487
		c0.014,0.179,0.019,0.358,0.039,0.539c0.678,5.522,5.703,9.449,11.229,8.772c5.522-0.679,9.448-5.706,8.771-11.229
		c-0.676-5.522-5.705-9.452-11.227-8.773c-2.546,0.312-4.742,1.555-6.314,3.334c-0.479,0.318-1.029,0.545-1.639,0.62
		c-2.111,0.259-4.029-1.242-4.289-3.352c-0.15-1.209,0.289-2.349,1.076-3.156c2.981-2.063,4.745-5.665,4.274-9.512
		c-0.678-5.523-5.707-9.451-11.229-8.772c-5.523,0.677-9.453,5.705-8.771,11.229c0.549,4.479,3.961,7.909,8.176,8.684
		c1.17,0.584,2.039,1.716,2.211,3.11C855.332,102.757,853.756,104.772,851.543,105.042z"/>
	<polygon fill="#020202" points="946.744,166.079 942.445,168.128 948.502,171.312 931.744,180.173 940.029,189.373 
		961.381,178.083 966.664,180.862 970.963,178.813 965.465,175.923 978.922,168.809 971.84,160.938 970.641,159.607 
		955.785,143.107 948.705,146.865 963.551,163.356 952.588,169.152 	"/>
	<polygon fill="#020202" points="841.002,371.703 816.684,366.088 823.043,353.672 830.41,352.732 833.051,348.07 825.416,349.045 
		835.141,330.064 821.568,326.932 809.176,351.113 802.516,351.963 799.873,356.625 806.807,355.742 798.998,370.982 
		810.605,373.662 812.568,374.117 836.904,379.734 	"/>
	<polygon fill="#020202" points="808.551,771.387 804.916,792.457 825.986,788.822 811.807,785.566 	"/>
	<polygon fill="#020202" points="835.084,762.289 814.379,765.561 826.738,770.635 831.812,782.994 	"/>
	<polygon fill="#020202" points="0.117,344.438 12.635,339.229 0.547,332.129 0,332.4 0,344.381 	"/>
	<polygon fill="#020202" points="771.088,267.127 786.92,259.109 785.602,240.236 	"/>
	<polygon fill="#020202" points="0.71,327.469 12.761,335.619 1.048,317.73 0,319.109 0,327.879 	"/>
	<polygon fill="#020202" points="0,686.119 0,691.109 12.253,690.084 	"/>
	<polygon fill="#020202" points="42.964,10.381 35.459,0 15.225,0 14.133,0.252 	"/>
	<polygon fill="#020202" points="32.565,995.996 15.225,1000 35.459,1000 	"/>
	<polygon fill="#020202" points="4.357,84.487 8.099,86.826 10.905,82.334 13.103,78.818 16.797,92.261 17.285,92.565 
		18.587,93.379 21.025,94.904 23.833,90.412 26.921,92.342 29.258,88.601 26.17,86.67 28.978,82.18 25.236,79.841 22.429,84.333 
		20.232,87.849 16.536,74.406 16.05,74.102 14.992,73.44 12.308,71.763 9.502,76.255 6.413,74.324 4.075,78.066 7.163,79.997 	"/>
	<polygon fill="#020202" points="48.27,9.155 56.081,0 51.257,0 	"/>
	<polygon fill="#020202" points="852.559,530.84 864.945,516.309 840.502,528.844 	"/>
	<polygon fill="#020202" points="791.996,981.588 784.615,981.803 790.883,1000 798.334,1000 	"/>
	<polygon fill="#020202" points="812.305,981.391 804.926,981.602 811.26,1000 818.715,1000 	"/>
	<polygon fill="#020202" points="50.098,991.949 33.779,995.717 36.875,1000 47.471,1000 	"/>
	<polygon fill="#020202" points="1000,686.119 996.68,685.045 994.424,668.834 988.281,692.094 1000,691.109 	"/>
	<polygon fill="#020202" points="713.676,995.596 695.488,995.615 687.535,979.262 688.697,1000 703.188,1000 	"/>
	<polygon fill="#020202" points="66.099,988.256 54.191,991.002 51.257,1000 56.081,1000 	"/>
	<path fill="#020202" d="M316.787,992.203c-0.086-4.943-4.166-8.887-9.111-8.799c-0.697,0.014-1.371,0.11-2.018,0.272
		c-1.668-0.317-2.941-1.768-2.973-3.53c-0.029-1.677,1.07-3.105,2.598-3.568c0.16,0.008,0.318,0.02,0.48,0.018
		c4.943-0.086,8.885-4.168,8.796-9.11c-0.084-4.945-4.166-8.886-9.108-8.8c-4.945,0.089-8.887,4.166-8.799,9.111
		c0.039,2.277,0.934,4.336,2.359,5.891c0.238,0.453,0.385,0.962,0.395,1.509c0.035,1.889-1.469,3.442-3.359,3.479
		c-1.084,0.017-2.051-0.477-2.689-1.248c-1.549-2.824-4.568-4.723-8.014-4.66c-4.945,0.084-8.884,4.162-8.799,9.111
		c0.088,4.943,4.168,8.883,9.111,8.799c4.012-0.071,7.361-2.768,8.438-6.424c0.625-0.979,1.707-1.643,2.955-1.666
		c1.984-0.035,3.617,1.547,3.652,3.529c0.007,0.356-0.045,0.699-0.14,1.026c-1.087,1.515-1.719,3.367-1.685,5.371
		c0.057,3.191,1.785,5.941,4.322,7.484h9.234C315.078,998.404,316.844,995.514,316.787,992.203z"/>
	<path fill="#020202" d="M0,96.613c1.468,1.847,3.25,3.491,5.361,4.812c9.978,6.232,23.164,3.188,29.396-6.787
		c6.233-9.976,3.189-23.164-6.786-29.397C18.699,59.446,6.658,61.68,0,70.034V96.613z M2.702,74.607
		c4.812-7.7,14.99-10.05,22.69-5.239c7.7,4.813,10.05,14.992,5.239,22.692c-4.812,7.698-14.99,10.049-22.69,5.237
		C0.241,92.487-2.109,82.308,2.702,74.607z"/>
	<path fill="#020202" d="M881.104,887.484c-5.254-7.234-13.793-10.662-22.086-9.74l3.482,4.791l2.67,3.68l-3.676,2.668l-6.762,4.912
		l14.52,2.303l-2.299,14.519l6.762-4.912l3.674-2.672l2.674,3.674l3.479,4.795C886.982,903.9,886.361,894.717,881.104,887.484z"/>
	<path fill="#020202" d="M894.99,644.029c5.215-5.996,6.479-14.078,4.02-21.076l-3.457,3.975l-2.647,3.049l-3.047-2.647
		l-5.605-4.877l0.91,13.037l-13.033,0.912l5.605,4.872l3.047,2.648l-2.65,3.047l-3.453,3.976
		C881.949,652.402,889.775,650.029,894.99,644.029z"/>
	<path fill="#020202" d="M900.328,716.67c2.156-0.738,3.836-2.227,4.873-4.066c0.358-0.362,0.795-0.663,1.312-0.84
		c1.783-0.614,3.73,0.336,4.347,2.119c0.354,1.025,0.186,2.099-0.355,2.947c-2.207,2.344-3.076,5.801-1.955,9.059
		c1.611,4.679,6.709,7.162,11.387,5.554c4.675-1.611,7.16-6.709,5.55-11.384c-1.306-3.795-4.904-6.146-8.713-6.039
		c-1.128-0.293-2.091-1.114-2.498-2.297c-0.646-1.875,0.352-3.92,2.227-4.563c0.34-0.117,0.682-0.172,1.023-0.187
		c1.772,0.566,3.731,0.597,5.627-0.059c4.678-1.607,7.162-6.705,5.551-11.383c-1.607-4.676-6.705-7.162-11.383-5.551
		c-4.677,1.606-7.162,6.704-5.552,11.383c0.226,0.658,0.527,1.27,0.884,1.836c0.211,1.684-0.775,3.344-2.441,3.916
		c-1.582,0.547-3.281-0.06-4.192-1.367c-0.046-0.156-0.082-0.309-0.134-0.461c-1.61-4.678-6.709-7.162-11.385-5.555
		c-4.678,1.61-7.164,6.709-5.553,11.387C890.553,715.795,895.65,718.281,900.328,716.67z"/>
	<path fill="#020202" d="M875.795,921.006c2.062-1.498,3.814-3.266,5.246-5.219l-4.658-6.408l-10.436,7.584l-5.072,3.682
		l3.309-20.864l-20.869-3.306l5.07-3.686l10.438-7.58l-4.656-6.41c-2.297,0.758-4.521,1.879-6.584,3.375
		c-10.723,7.791-13.104,22.801-5.312,33.523C850.062,926.422,865.072,928.799,875.795,921.006z"/>
	<polygon fill="#020202" points="859.447,549.594 852.393,531.85 840.336,529.857 	"/>
	<polygon fill="#020202" points="877.26,186.73 871.758,186.345 871.439,190.887 864.834,190.425 864.449,195.926 871.055,196.387 
		876.225,196.75 863.555,208.716 863.506,209.434 863.373,211.348 863.121,214.934 869.727,215.396 869.408,219.939 
		874.908,220.322 875.229,215.781 881.832,216.242 882.217,210.742 875.611,210.281 870.443,209.92 883.111,197.951 883.16,197.234 
		883.268,195.682 883.545,191.733 876.939,191.271 	"/>
	<path fill="#020202" d="M875.191,176.731c-14.668-1.025-27.435,10.075-28.459,24.743c-1.025,14.666,10.069,27.434,24.737,28.459
		c14.672,1.025,27.439-10.072,28.465-24.74C900.961,190.525,889.859,177.757,875.191,176.731z M893.867,204.768
		c-0.795,11.324-10.648,19.891-21.969,19.1c-11.322-0.793-19.892-10.646-19.101-21.971c0.791-11.32,10.648-19.888,21.972-19.096
		C886.09,183.592,894.658,193.447,893.867,204.768z"/>
	<polygon fill="#020202" points="967.432,928.379 962.461,944.322 947.617,951.988 973.764,953.809 	"/>
	<path fill="#020202" d="M1000,96.613V70.034c-0.504,0.633-0.986,1.292-1.426,1.994C993.662,79.893,994.535,89.736,1000,96.613z"/>
	<polygon fill="#020202" points="689.033,5.947 703.188,0 688.697,0 	"/>
	<polygon fill="#020202" points="942.236,927.357 959.541,921.758 932.906,919.525 939.73,945.367 	"/>
	<polygon fill="#020202" points="1000,667.393 997.535,666.225 1000,678.258 	"/>
	<polygon fill="#020202" points="962.998,924.658 946.703,931.104 943.188,948.271 958.496,941 	"/>
	<polygon fill="#020202" points="1000,596.352 1000,575.182 994.482,574.391 990.83,566.992 984.977,565.904 988.764,573.574 
		965.303,570.221 966.92,585.615 996.811,589.887 	"/>
	<path fill="#020202" d="M312.434,0H303.2c1.398,0.85,3.033,1.345,4.789,1.315C309.625,1.286,311.129,0.789,312.434,0z"/>
	<path fill="#020202" d="M446.559,268.098l21.644,24.622l7.59-3.374l-19.369-22.033c-0.104-0.12-0.061-0.309,0.084-0.367
		l12.385-5.283c0.38-0.16,0.818-0.062,1.091,0.247l19.272,21.927l7.59-3.375l-21.334-24.27c-2.879-3.276-7.518-4.375-11.561-2.739
		l-15.396,6.228C445.166,261.05,444.146,265.354,446.559,268.098z"/>
	<polygon fill="#020202" points="446.346,366.75 449.432,382.422 461.928,373.994 	"/>
	<polygon fill="#020202" points="474.182,365.729 449.48,364.633 465.062,371.879 	"/>
	<polygon fill="#020202" points="462.443,374.76 449.947,383.188 463.324,391.92 	"/>
	<polygon fill="#020202" points="449.02,383.812 434.902,393.336 462.395,392.545 	"/>
	<polygon fill="#020202" points="461.904,558.121 455.953,572.188 461.699,580.098 	"/>
	<polygon fill="#020202" points="445.438,559.111 438.096,571.266 453.314,569.951 	"/>
	<polygon fill="#020202" points="459.344,554.596 436.621,545.58 445.516,557.826 	"/>
	<polygon fill="#020202" points="459.93,555.404 446.102,558.629 453.979,569.469 	"/>
	<path fill="#020202" d="M434.027,635.742c-5.705-10.883-13.847-17.406-19.729-20.982c-5.471,3.066-13.178,8.685-19.164,18.142
		c-6.569,10.385-8.147,20.692-8.303,27.573c5.391,3.207,14.109,7.074,25.291,7.527c12.277,0.504,21.994-3.289,28.033-6.596
		C440.234,655.137,439.223,645.65,434.027,635.742z M403.539,627.047c1.289-2.926,3.652-4.604,6.92-6.934
		c1.113-0.791,2.275-1.533,3.455-2.207l0.164-0.094l0.158,0.098c4.86,3.031,9.09,6.854,12.567,11.373
		c2.656,3.451,4.826,7.25,6.451,11.297l0.324,0.811l-0.769-0.42c-1.534-0.844-4.018-1.858-7.114-1.928h-0.002
		c-0.035-0.004-0.068-0.004-0.104-0.004c-3.225-0.055-5.471,0.986-7.279,1.824c-0.383,0.178-0.745,0.344-1.096,0.494
		c-1.274,0.541-3.838,1.334-6.705,0.59c-4.719-1.229-7.528-5.81-7.865-9.701C402.541,631.039,402.611,629.154,403.539,627.047z
		 M393.385,661.123c-1.237-0.562-2.463-1.201-3.639-1.889l-0.16-0.091l0.006-0.188c0.189-5.723,1.39-11.299,3.562-16.572
		c1.655-4.02,3.862-7.799,6.557-11.229l0.543-0.689l0.019,0.875c0.036,1.752,0.396,4.408,1.891,7.129
		c1.838,3.354,4.283,4.928,6.07,6.08l0.067,0.043c0.086,0.056,0.152,0.099,0.187,0.123c1.321,1.029,3.053,2.808,3.782,5.449
		c1.296,4.701-1.268,9.428-4.469,11.664c-0.996,0.692-2.66,1.576-4.949,1.826C399.674,663.994,397.037,662.793,393.385,661.123z
		 M437.457,659.775c-5.051,2.698-10.48,4.446-16.133,5.2c-4.314,0.574-8.689,0.556-13.006-0.061l-0.867-0.127l0.748-0.453
		c1.498-0.908,3.621-2.549,5.229-5.199c2.011-3.311,2.131-6.108,2.228-8.354l0.004-0.121c0.227-1.721,0.899-4.152,2.844-6.125
		c2.131-2.162,5.016-3.035,7.742-2.986c1.656,0.029,3.256,0.398,4.594,1.023c1.098,0.514,2.695,1.516,4.055,3.371
		c1.89,2.582,2.164,5.467,2.543,9.461c0.132,1.354,0.193,2.733,0.187,4.098v0.187L437.457,659.775z"/>
	<path fill="#020202" d="M456.398,170.649c-1.793,14.595,8.623,27.927,23.217,29.72c14.596,1.791,27.928-8.623,29.717-23.219
		c1.795-14.595-8.623-27.927-23.215-29.719C471.52,145.64,458.189,156.057,456.398,170.649z M506.797,176.838
		c-1.621,13.196-13.674,22.613-26.871,20.992c-13.192-1.619-22.61-13.673-20.99-26.868c1.619-13.195,13.675-22.612,26.869-20.993
		C499,151.589,508.418,163.643,506.797,176.838z"/>
	<polygon fill="#020202" points="448.502,383.049 445.416,367.377 434.389,392.57 	"/>
	<polygon fill="#020202" points="477.01,275.41 470.898,278.088 482.184,290.928 488.297,288.25 	"/>
	<path fill="#020202" d="M483.516,496.537c9.021,6.396,18.216,8.297,24.396,8.762c3.131-4.695,7.018-12.35,7.955-22.377
		c1.024-11.01-1.92-19.924-4.609-25.506c-5.631-0.369-14.201,0.094-23.354,4.299c-10.05,4.615-16.295,11.625-19.785,16.742
		C470.613,483.52,475.299,490.713,483.516,496.537z M508.803,499.438c-0.565,1.087-1.194,2.156-1.869,3.183l-0.094,0.141
		l-0.166-0.014c-5.137-0.441-10.092-1.781-14.727-3.982c-3.539-1.682-6.834-3.842-9.787-6.424l-0.594-0.52l0.787,0.024
		c1.575,0.049,3.979-0.149,6.495-1.36c3.14-1.515,4.603-3.566,5.775-5.216l0.064-0.09c1.012-1.188,2.713-2.692,5.147-3.229
		c2.666-0.588,5.271,0.168,7.305,1.541c1.236,0.834,2.267,1.895,2.97,3.022c0.575,0.929,1.289,2.466,1.405,4.533
		C511.68,493.922,510.473,496.234,508.803,499.438z M497.113,461.416c2.405-1.576,5.012-1.688,8.623-1.842
		c1.227-0.051,2.467-0.043,3.688,0.026l0.17,0.011l0.07,0.151c2.188,4.67,3.504,9.631,3.914,14.744
		c0.313,3.906,0.088,7.838-0.668,11.688l-0.152,0.772l-0.375-0.694c-0.746-1.388-2.119-3.373-4.424-4.943h-0.004
		c-0.021-0.019-0.049-0.035-0.074-0.053c-2.408-1.625-4.613-1.938-6.391-2.191c-0.373-0.055-0.732-0.105-1.066-0.164
		c-1.229-0.217-3.553-0.875-5.35-2.842c-2.961-3.24-2.838-8.076-1.185-11.178C494.404,463.939,495.379,462.551,497.113,461.416z
		 M472.746,482.16c-0.658-1.033-1.271-2.115-1.822-3.209l-0.076-0.15l0.097-0.139c2.95-4.226,6.59-7.846,10.813-10.762
		c3.224-2.222,6.74-3.992,10.453-5.263l0.748-0.256l-0.416,0.67c-0.828,1.338-1.859,3.521-2.068,6.308
		c-0.256,3.434,0.818,5.819,1.603,7.565l0.031,0.066c0.039,0.082,0.065,0.146,0.08,0.184c0.493,1.424,0.928,3.613,0.184,5.965
		c-1.326,4.187-5.576,6.494-9.088,6.615c-1.092,0.035-2.781-0.115-4.633-1.049C476.086,487.408,474.684,485.209,472.746,482.16z"/>
	<polygon fill="#020202" points="474.697,366.494 465.578,372.645 466.459,389.805 	"/>
	<path fill="#020202" d="M482.332,164.222c-0.193-0.553-0.668-1.675-1.785-2.571c-2.348-1.89-5.285-0.984-5.473-0.925
		c-1.928,0.63-2.941,2.109-3.463,2.895c-0.74,1.114-1.05,2.14-1.418,4.991l-4.463-0.548c-0.183-0.023-0.349,0.107-0.371,0.291
		l-0.341,2.771c-0.022,0.183,0.107,0.349,0.289,0.371l4.49,0.552c-0.096,0.903-0.182,1.755-0.254,2.531L465,174.021
		c-0.184-0.022-0.35,0.107-0.371,0.292l-0.342,2.771c-0.023,0.183,0.106,0.35,0.291,0.371l4.656,0.571
		c-0.017,0.197-0.031,0.364-0.041,0.5c-0.226,2.671-0.351,4.209-0.498,5.706c-0.021,0.181,0.11,0.337,0.291,0.358l3.235,0.398
		c0.183,0.021,0.351-0.109,0.371-0.291l0.416-3.394c0.021-0.183,0.189-0.312,0.373-0.29l17.246,2.117
		c0.184,0.023,0.312,0.189,0.291,0.373l-0.465,2.806c-0.021,0.161,0.084,0.316,0.242,0.361c0.991,0.285,1.936,0.492,2.918,0.762
		c0.174,0.049,0.356-0.049,0.407-0.225c0.181-0.606,0.4-1.412,0.646-2.447c0.176-0.739,0.438-1.797,0.756-3.52l4.326,0.532
		c0.182,0.021,0.35-0.108,0.371-0.291l0.342-2.771c0.021-0.185-0.107-0.351-0.291-0.373l-4.313-0.529
		c0.057-0.518,0.114-1.065,0.174-1.658c0.028-0.31,0.059-0.596,0.084-0.872l4.367,0.537c0.182,0.021,0.348-0.107,0.37-0.292
		l0.341-2.771c0.021-0.183-0.107-0.35-0.291-0.371l-4.492-0.552c0.014-0.249,0.021-0.474,0.021-0.671
		c0.013-3.673,0.019-5.955-1.485-8.077c-0.267-0.378-1.961-2.694-5.06-3.269c-0.771-0.144-3.258-0.604-5.375,1.021
		C482.99,162.002,482.488,163.61,482.332,164.222z M480.484,172.437l-0.384,3.104c-0.021,0.183-0.188,0.312-0.37,0.29l-6.289-0.771
		c-0.185-0.022-0.312-0.188-0.291-0.373l0.381-3.102c0.039-0.402,0.199-2.512,1.828-3.603c0.313-0.211,1.102-0.592,2.037-0.503
		c1.209,0.119,1.995,1.057,2.309,1.484C480.707,170.334,480.541,171.936,480.484,172.437z M486.357,167.356
		c0.319-0.159,1.157-0.657,2.385-0.499c1.526,0.198,2.574,1.675,2.865,2.208c0.661,1.211,0.752,2.661,0.704,3.271l-0.567,4.622
		c-0.017,0.188-0.187,0.325-0.373,0.301l-7.379-0.904c-0.183-0.023-0.312-0.189-0.291-0.371c0.162-1.313,0.375-2.953,0.483-3.938
		C484.34,170.666,484.461,168.309,486.357,167.356z"/>
	<polygon fill="#020202" points="557.891,234.846 564.922,228.055 561.504,213.169 	"/>
	<polygon fill="#020202" points="606.27,465.807 622.936,468.895 636.162,458.297 619.186,453.963 	"/>
	<path fill="#020202" d="M573.219,295.942c-11.428,9.255-13.194,26.079-3.94,37.507c9.252,11.428,26.078,13.195,37.504,3.941
		c11.428-9.254,13.194-26.078,3.94-37.506C601.471,288.457,584.645,286.689,573.219,295.942z M608.736,301.494
		c8.367,10.332,6.768,25.543-3.564,33.91c-10.332,8.367-25.543,6.768-33.908-3.564c-8.367-10.332-6.768-25.545,3.564-33.91
		C585.16,289.562,600.371,291.162,608.736,301.494z"/>
	<polygon fill="#020202" points="627.789,488.221 637.572,463.91 624.195,473.91 607.68,471.418 	"/>
	<polygon fill="#020202" points="605.17,461.43 617.764,448.309 635.062,453.92 614.799,436.494 	"/>
	<polygon fill="#020202" points="535.895,67.642 532.523,74.636 523.047,58.135 513.525,67.329 511.914,68.885 491.949,88.164 
		496.955,96.844 516.904,77.576 524.625,91.019 521.041,98.452 523.789,103.735 527.504,96.028 539.303,116.579 550.436,105.827 
		535.4,79.646 538.639,72.923 	"/>
	<path fill="#020202" d="M617.77,28.323c-1.836,0.424-3.663-0.454-4.53-2.024c-0.031-0.178-0.056-0.354-0.095-0.532
		c-1.254-5.422-6.663-8.802-12.084-7.551c-5.422,1.252-8.805,6.662-7.551,12.084c1.25,5.423,6.66,8.804,12.082,7.552
		c2.498-0.576,4.551-2.041,5.933-3.977c0.442-0.366,0.967-0.649,1.565-0.787c2.07-0.479,4.137,0.813,4.615,2.884
		c0.272,1.187-0.043,2.366-0.746,3.252c-2.746,2.365-4.123,6.131-3.254,9.907c1.252,5.422,6.662,8.802,12.086,7.551
		c5.42-1.252,8.803-6.662,7.549-12.084c-1.016-4.397-4.766-7.451-9.039-7.781c-1.225-0.459-2.207-1.492-2.522-2.863
		c-0.502-2.173,0.854-4.342,3.026-4.844c0.392-0.091,0.785-0.113,1.166-0.088c1.916,0.842,4.107,1.105,6.301,0.598
		c5.425-1.252,8.808-6.66,7.554-12.083c-1.25-5.422-6.66-8.803-12.084-7.551c-5.422,1.252-8.802,6.662-7.552,12.083
		c0.177,0.766,0.441,1.483,0.773,2.157C621.002,26.135,619.703,27.876,617.77,28.323z"/>
	<path fill="#020202" d="M589.369,301.775l2.15,2.656c0.114,0.143,0.092,0.354-0.05,0.469l-13.506,10.936
		c-0.143,0.117-0.354,0.096-0.469-0.049l-1.699-2.281c-0.1-0.127-0.283-0.162-0.426-0.08c-0.894,0.516-1.695,1.051-2.574,1.57
		c-0.156,0.092-0.213,0.293-0.125,0.449c0.312,0.553,0.74,1.27,1.316,2.166c0.41,0.639,0.985,1.564,2.008,2.986l-3.389,2.744
		c-0.144,0.115-0.166,0.326-0.05,0.469l1.759,2.17c0.112,0.145,0.325,0.166,0.469,0.051l3.375-2.734
		c0.332,0.398,0.69,0.82,1.074,1.275c0.202,0.236,0.389,0.455,0.569,0.666l-3.422,2.77c-0.143,0.115-0.162,0.326-0.049,0.469
		l1.758,2.17c0.117,0.143,0.326,0.166,0.469,0.051l3.521-2.85c0.17,0.184,0.326,0.344,0.465,0.48
		c2.637,2.561,4.271,4.15,6.844,4.543c0.459,0.07,3.302,0.461,5.865-1.369c0.642-0.457,2.699-1.924,3.002-4.574
		c0.217-1.906-0.594-3.385-0.922-3.922c0.531,0.246,1.666,0.682,3.09,0.504c2.988-0.379,4.377-3.119,4.465-3.297
		c0.888-1.824,0.527-3.58,0.326-4.5c-0.289-1.309-0.813-2.242-2.606-4.488l3.492-2.83c0.145-0.115,0.166-0.324,0.049-0.469
		l-1.758-2.17c-0.113-0.145-0.324-0.166-0.47-0.049l-3.516,2.846c-0.582-0.697-1.135-1.35-1.642-1.941l3.56-2.881
		c0.143-0.117,0.162-0.326,0.049-0.469l-1.758-2.17c-0.117-0.145-0.326-0.166-0.469-0.049l-3.646,2.949
		c-0.129-0.146-0.24-0.273-0.332-0.375c-1.764-2.016-2.783-3.176-3.756-4.322c-0.121-0.137-0.322-0.154-0.463-0.039l-2.531,2.051
		C589.273,301.424,589.252,301.633,589.369,301.775z M592.281,323.725c-0.107,0.342-0.332,1.291-1.299,2.061
		c-1.201,0.961-2.99,0.689-3.576,0.527c-1.332-0.365-2.439-1.309-2.842-1.764l-2.931-3.619c-0.127-0.143-0.106-0.359,0.039-0.479
		l5.777-4.68c0.143-0.115,0.354-0.092,0.469,0.051c0.834,1.027,1.865,2.318,2.496,3.082
		C591.303,319.975,592.914,321.699,592.281,323.725z M595.713,309.082c0.144-0.115,0.355-0.094,0.469,0.049l1.97,2.43
		c0.262,0.309,1.668,1.887,1.321,3.818c-0.067,0.373-0.342,1.205-1.055,1.812c-0.924,0.789-2.145,0.703-2.672,0.633
		c-1.68-0.23-2.715-1.465-3.037-1.855l-1.971-2.43c-0.113-0.145-0.094-0.352,0.049-0.469L595.713,309.082z"/>
	<polygon fill="#020202" points="577.695,215.721 588.58,205.207 564.639,210.142 	"/>
	<polygon fill="#020202" points="567.34,225.721 576.979,216.414 563.922,210.832 	"/>
	<polygon fill="#020202" points="455.289,572.672 440.072,573.984 461.035,580.58 	"/>
	<polygon fill="#020202" points="552.354,378.857 531.914,370.182 527.086,376.58 547.514,385.25 540.025,395.137 533.434,394.82 
		530.4,398.494 537.236,398.822 525.795,413.934 537.188,418.771 551.771,399.516 557.734,399.801 560.766,396.127 554.561,395.83 
		563.75,383.695 554,379.557 	"/>
	<polygon fill="#020202" points="558.461,235.438 580.25,232.58 565.492,228.645 	"/>
	<polygon fill="#020202" points="577.549,217.004 567.91,226.311 582.67,230.246 	"/>
	<polygon fill="#020202" points="583.385,229.553 589.15,205.799 578.266,216.311 	"/>
	<polygon fill="#020202" points="437.51,570.459 444.854,558.307 435.957,546.061 	"/>
	<polygon fill="#020202" points="456.479,764.381 457.848,769.498 462.109,768.355 460.738,763.238 459.664,759.234 
		472.016,765.699 472.574,765.553 474.057,765.152 476.834,764.41 475.465,759.293 478.98,758.354 477.838,754.088 474.32,755.033 
		472.951,749.916 468.689,751.059 470.061,756.176 471.133,760.18 458.783,753.715 458.227,753.861 457.021,754.186 
		453.965,755.004 455.336,760.121 451.818,761.061 452.959,765.326 	"/>
	<polygon fill="#020202" points="667.236,816.602 670.703,813.48 670.531,829.164 670.963,829.645 671.9,830.688 674.283,833.334 
		678.711,829.346 681.451,832.389 685.143,829.068 682.398,826.025 686.83,822.037 683.506,818.35 679.078,822.338 675.611,825.459 
		675.785,809.775 675.352,809.293 674.195,808.012 672.031,805.605 667.604,809.594 664.863,806.547 661.176,809.869 
		663.916,812.914 659.486,816.9 662.809,820.59 	"/>
	<path fill="#020202" d="M689.215,837.305c9.838-8.854,10.633-24.059,1.777-33.893c-8.854-9.834-24.06-10.633-33.894-1.777
		c-9.834,8.854-10.631,24.06-1.776,33.894C664.176,845.362,679.381,846.158,689.215,837.305z M660.762,805.703
		c7.592-6.836,19.326-6.221,26.162,1.371c6.836,7.59,6.221,19.326-1.371,26.162c-7.59,6.836-19.326,6.221-26.162-1.371
		S653.17,812.539,660.762,805.703z"/>
	<polygon fill="#020202" points="716.068,991.764 706.734,977.617 689.928,975.434 698.578,990.674 	"/>
	<path fill="#020202" d="M659.186,117.482v6.583v5.049h-5.049h-9.287l11.552,11.55l-11.552,11.55h9.287h5.049v5.049v6.583
		c8.058-4.588,13.494-13.247,13.494-23.182S667.242,122.07,659.186,117.482z"/>
	<polygon fill="#020202" points="665.723,607.408 659.02,621.908 675.873,618.551 	"/>
	<polygon fill="#020202" points="684.01,604.262 679.098,620.727 686.508,628.857 	"/>
	<path fill="#020202" d="M691.078,361.568c0-4.359-2.758-8.246-6.875-9.688l-15.674-5.488c-3.447-1.207-7.06,1.354-7.06,5.008
		v32.781l7.931,2.477V357.32c0-0.158,0.153-0.27,0.303-0.221l12.791,4.209c0.391,0.131,0.656,0.494,0.656,0.906v29.191l7.928,2.479
		V361.568L691.078,361.568z"/>
	<polygon fill="#020202" points="787.945,259.035 804.74,264.773 786.625,240.164 	"/>
	<path fill="#020202" d="M756.465,421.238c1.488,4.793,4.604,11.758,11.006,18.014c7.031,6.871,14.838,9.818,20.199,11.084
		c3.4-3.684,7.881-9.865,10.094-18.539c2.433-9.522,1.084-17.758-0.498-23.031c-4.893-1.106-12.483-1.895-21.104,0.525
		C766.695,411.945,760.24,417.23,756.465,421.238z M792.816,438.328c-0.259,2.545-1.64,4.408-3.554,6.986
		c-0.646,0.872-1.348,1.727-2.08,2.532l-0.1,0.111l-0.146-0.035c-4.447-1.102-8.611-2.967-12.373-5.545
		c-2.875-1.967-5.468-4.322-7.703-7l-0.449-0.537l0.691,0.131c1.377,0.263,3.516,0.422,5.891-0.291
		c2.967-0.893,4.535-2.491,5.799-3.776l0.064-0.068c1.055-0.9,2.758-1.986,4.971-2.119c2.422-0.146,4.604,0.879,6.201,2.369
		c0.967,0.902,1.723,1.979,2.182,3.066C792.592,435.047,793.002,436.498,792.816,438.328z M784.291,410.309
		c2.334-1.049,4.639-0.782,7.824-0.418c1.088,0.125,2.176,0.308,3.24,0.537l0.146,0.031l0.039,0.145
		c1.27,4.402,1.738,8.943,1.387,13.49c-0.268,3.472-1.014,6.892-2.215,10.166l-0.24,0.658l-0.229-0.662
		c-0.463-1.322-1.392-3.256-3.197-4.955h-0.004c-0.021-0.02-0.039-0.039-0.059-0.059c-1.888-1.76-3.779-2.344-5.306-2.812
		c-0.322-0.098-0.629-0.192-0.916-0.293c-1.045-0.358-2.994-1.26-4.299-3.235c-2.148-3.257-1.367-7.486,0.514-9.979
		C781.562,412.146,782.611,411.064,784.291,410.309z M758.92,421.812c3.176-3.302,6.875-5.976,10.988-7.945
		c3.139-1.504,6.473-2.568,9.91-3.168l0.692-0.117l-0.459,0.529c-0.916,1.061-2.123,2.83-2.692,5.248
		c-0.703,2.979-0.091,5.227,0.354,6.866l0.016,0.062c0.023,0.078,0.039,0.139,0.048,0.174c0.233,1.318,0.312,3.301-0.668,5.264
		c-1.748,3.488-5.802,4.925-8.9,4.541c-0.963-0.118-2.428-0.487-3.918-1.563c-2.074-1.494-2.998-3.621-4.277-6.568
		c-0.434-0.998-0.82-2.031-1.151-3.069l-0.048-0.144L758.92,421.812z"/>
	<polygon fill="#020202" points="789.492,281.174 790.346,293.367 805.121,270.207 	"/>
	<polygon fill="#020202" points="789.199,276.984 804.828,266.016 788.031,260.278 	"/>
	<polygon fill="#020202" points="771.176,268.369 788.178,277.056 787.008,260.35 	"/>
	<path fill="#020202" d="M732.955,507.623c1.719-5.293-1.178-10.979-6.471-12.697s-10.978,1.178-12.695,6.469
		c-0.24,0.748-0.385,1.5-0.449,2.248c-0.947,1.656-2.959,2.48-4.848,1.869c-1.789-0.584-2.906-2.276-2.842-4.069
		c0.065-0.168,0.137-0.332,0.194-0.507c1.72-5.291-1.178-10.977-6.471-12.694c-5.293-1.722-10.977,1.178-12.695,6.469
		c-1.719,5.293,1.179,10.979,6.47,12.697c2.438,0.791,4.952,0.596,7.131-0.355c0.569-0.084,1.162-0.059,1.748,0.133
		c2.021,0.654,3.129,2.826,2.471,4.849c-0.377,1.158-1.252,2.008-2.311,2.405c-3.574,0.611-6.695,3.128-7.896,6.816
		c-1.719,5.293,1.18,10.977,6.469,12.695c5.293,1.719,10.978-1.177,12.699-6.47c1.393-4.293-0.248-8.842-3.744-11.323
		c-0.813-1.025-1.123-2.42-0.688-3.759c0.688-2.12,2.967-3.28,5.088-2.594c0.385,0.127,0.729,0.31,1.045,0.527
		c1.211,1.709,2.953,3.062,5.096,3.76C725.551,515.811,731.234,512.916,732.955,507.623z"/>
	<polygon fill="#020202" points="717.295,960.719 692.992,970.527 709.477,973.229 719.131,986.861 	"/>
	<polygon fill="#020202" points="788.471,281.248 771.469,272.561 789.322,293.439 	"/>
	<polygon fill="#020202" points="678.418,621.348 661.566,624.703 685.824,629.479 	"/>
	<path fill="#020202" d="M575.551,814.658c10.705-7.779,13.088-22.818,5.31-33.525c-7.777-10.707-22.816-13.086-33.521-5.309
		c-10.707,7.778-13.09,22.813-5.311,33.524C549.805,820.053,564.844,822.436,575.551,814.658z M548.688,777.686
		c9.683-7.034,23.279-4.879,30.312,4.802c7.033,9.678,4.879,23.274-4.799,30.311c-9.683,7.031-23.277,4.879-30.312-4.803
		C536.855,798.314,539.01,784.721,548.688,777.686z"/>
	<polygon fill="#020202" points="658.266,621.08 664.967,606.578 653.502,593.99 	"/>
	<path fill="#020202" d="M588.736,560.609l-2.438,1.241c-0.131,0.066-0.293,0.015-0.356-0.116l-6.312-12.386
		c-0.068-0.131-0.014-0.293,0.117-0.358l2.066-0.949c0.116-0.059,0.174-0.195,0.135-0.32c-0.254-0.787-0.541-1.504-0.801-2.276
		c-0.048-0.138-0.193-0.216-0.332-0.17c-0.482,0.151-1.113,0.364-1.912,0.668c-0.568,0.215-1.388,0.51-2.672,1.073l-1.582-3.108
		c-0.068-0.131-0.229-0.183-0.357-0.117l-1.992,1.016c-0.131,0.068-0.184,0.229-0.117,0.357l1.578,3.1
		c-0.367,0.195-0.758,0.4-1.178,0.629c-0.219,0.117-0.42,0.228-0.615,0.332l-1.6-3.135c-0.064-0.131-0.227-0.184-0.357-0.117
		l-1.991,1.017c-0.132,0.063-0.183,0.227-0.113,0.356l1.643,3.228c-0.172,0.104-0.323,0.196-0.455,0.285
		c-2.44,1.635-3.959,2.653-4.692,4.6c-0.131,0.346-0.908,2.508,0.098,4.818c0.25,0.575,1.057,2.428,3.082,3.108
		c1.455,0.484,2.744,0.099,3.219-0.072c-0.278,0.375-0.811,1.195-0.908,2.334c-0.2,2.402,1.714,3.945,1.837,4.043
		c1.282,1,2.715,1.011,3.471,1.003c1.07-0.007,1.889-0.261,3.945-1.291l1.631,3.204c0.067,0.132,0.229,0.185,0.36,0.117l1.988-1.016
		c0.135-0.068,0.186-0.228,0.117-0.357l-1.644-3.227c0.646-0.342,1.246-0.664,1.794-0.963l1.663,3.266
		c0.064,0.129,0.228,0.183,0.357,0.117l1.992-1.016c0.131-0.068,0.182-0.229,0.117-0.359l-1.705-3.346
		c0.137-0.074,0.254-0.142,0.352-0.195c1.867-1.045,2.945-1.65,4.006-2.221c0.127-0.07,0.174-0.226,0.107-0.354l-1.185-2.324
		C589.027,560.596,588.867,560.543,588.736,560.609z M571.078,559.238c-0.252-0.142-0.955-0.474-1.4-1.357
		c-0.551-1.1-0.039-2.457,0.183-2.887c0.508-0.984,1.43-1.689,1.854-1.933l3.318-1.69c0.133-0.072,0.299-0.023,0.367,0.113
		l2.7,5.299c0.066,0.131,0.015,0.291-0.116,0.358c-0.939,0.479-2.125,1.074-2.824,1.438
		C574.174,559.096,572.555,560.072,571.078,559.238z M581.846,564.721l-2.227,1.136c-0.287,0.153-1.754,0.989-3.209,0.397
		c-0.281-0.115-0.887-0.467-1.244-1.127c-0.463-0.854-0.191-1.797-0.049-2.193c0.459-1.278,1.598-1.885,1.957-2.069l2.229-1.138
		c0.131-0.067,0.291-0.014,0.359,0.117l2.301,4.519C582.031,564.492,581.979,564.652,581.846,564.721z"/>
	<path fill="#020202" d="M547.994,804.369c0.098,0.133,0.283,0.166,0.42,0.068l3.291-2.394c0.492,0.65,0.961,1.262,1.387,1.818
		l-3.332,2.426c-0.135,0.094-0.164,0.283-0.065,0.416l1.475,2.035c0.099,0.133,0.287,0.162,0.42,0.063l3.418-2.479
		c0.107,0.141,0.203,0.258,0.277,0.354c1.494,1.896,2.354,2.984,3.174,4.062c0.103,0.127,0.283,0.149,0.414,0.055l2.373-1.725
		c0.133-0.099,0.162-0.283,0.068-0.42l-1.812-2.486c-0.098-0.135-0.068-0.322,0.064-0.42l12.653-9.193
		c0.134-0.098,0.322-0.067,0.42,0.068l1.419,2.129c0.086,0.121,0.247,0.16,0.379,0.092c0.83-0.42,1.573-0.862,2.389-1.289
		c0.146-0.076,0.205-0.254,0.133-0.399c-0.256-0.509-0.604-1.177-1.08-2.006c-0.338-0.597-0.813-1.451-1.664-2.779l3.174-2.305
		c0.138-0.099,0.166-0.287,0.068-0.421l-1.477-2.034c-0.099-0.134-0.287-0.162-0.42-0.064l-3.164,2.297
		c-0.281-0.373-0.58-0.771-0.906-1.196c-0.168-0.222-0.328-0.427-0.479-0.625l3.203-2.328c0.136-0.099,0.164-0.285,0.066-0.42
		l-1.479-2.033c-0.098-0.135-0.283-0.164-0.42-0.066l-3.295,2.394c-0.143-0.168-0.274-0.322-0.396-0.451
		c-2.246-2.426-3.644-3.935-5.938-4.404c-0.406-0.086-2.942-0.57-5.336,0.953c-0.596,0.381-2.512,1.602-2.91,3.971
		c-0.285,1.703,0.371,3.066,0.644,3.568c-0.467-0.248-1.465-0.693-2.752-0.6c-2.705,0.198-4.084,2.596-4.17,2.752
		c-0.882,1.598-0.642,3.192-0.505,4.028c0.199,1.188,0.625,2.056,2.134,4.156l-3.275,2.381c-0.133,0.099-0.162,0.283-0.063,0.416
		L547.994,804.369z M559.727,788.793c0.111-0.303,0.357-1.146,1.265-1.795c1.125-0.807,2.721-0.479,3.242-0.305
		c1.178,0.391,2.125,1.291,2.471,1.719l2.461,3.391c0.106,0.136,0.078,0.33-0.06,0.431l-5.413,3.934
		c-0.134,0.098-0.322,0.064-0.421-0.068c-0.698-0.961-1.565-2.172-2.096-2.889C560.43,792.207,559.062,790.58,559.727,788.793z
		 M552.871,795.951c0.078-0.33,0.361-1.064,1.031-1.58c0.866-0.664,1.963-0.529,2.432-0.441c1.502,0.289,2.373,1.445,2.645,1.81
		l1.652,2.278c0.098,0.134,0.068,0.322-0.068,0.42l-4.61,3.351c-0.135,0.098-0.322,0.067-0.42-0.064l-1.654-2.274
		C553.656,799.156,552.467,797.672,552.871,795.951z"/>
	<polygon fill="#020202" points="520.297,672.252 533.949,682.592 538.604,671.625 539.391,669.77 549.15,646.777 541.953,641.344 
		532.197,664.322 521.078,655.902 521.432,648.482 517.299,645.074 516.93,652.764 499.928,639.889 494.488,652.709 
		516.148,669.115 515.83,675.82 519.961,679.232 	"/>
	<path fill="#020202" d="M470.922,780.312c11.361-3.044,18.127-14.767,15.084-26.128c-3.045-11.362-14.766-18.131-26.127-15.084
		c-11.363,3.044-18.131,14.767-15.086,26.128C447.838,776.592,459.559,783.359,470.922,780.312z M461.137,743.803
		c8.771-2.352,17.818,2.871,20.168,11.644c2.353,8.77-2.873,17.815-11.643,20.166c-8.771,2.352-17.818-2.873-20.168-11.644
		C447.144,755.199,452.367,746.152,461.137,743.803z"/>
	<path fill="#020202" d="M497.664,918.594c11.766-0.619,20.807-10.653,20.188-22.422c-0.614-11.764-10.653-20.805-22.42-20.186
		c-2.264,0.117-4.426,0.59-6.438,1.352l0.367,7.031l11.453-0.6l5.562-0.294l-12.563,13.955l13.954,12.564l-5.563,0.293l-11.451,0.6
		l0.369,7.035C493.201,918.471,495.4,918.711,497.664,918.594z"/>
	<path fill="#020202" d="M595.986,548.941c-5.342-10.48-18.213-14.66-28.695-9.322c-10.479,5.342-14.66,18.213-9.322,28.695
		c5.342,10.479,18.213,14.659,28.695,9.321C597.145,572.295,601.328,559.424,595.986,548.941z M559.791,567.387
		c-4.826-9.479-1.047-21.117,8.432-25.944c9.478-4.826,21.113-1.048,25.941,8.428c4.83,9.479,1.047,21.117-8.428,25.945
		C576.26,580.641,564.619,576.861,559.791,567.387z"/>
	<polygon fill="#020202" points="673.158,374.975 673.158,392.068 679.516,394.092 679.516,376.996 	"/>
	<polygon fill="#020202" points="665.65,605.957 680.709,600.635 654.186,593.369 	"/>
	<polygon fill="#020202" points="681.465,601.465 666.402,606.787 676.553,617.93 	"/>
	<path fill="#020202" d="M640.883,686.83c-5.457-1.436-13.959-2.617-23.748-0.238c-10.744,2.613-18.213,8.306-22.617,12.662
		c1.488,5.443,4.718,13.398,11.67,20.685c7.636,8.002,16.298,11.62,22.273,13.256c3.971-4.011,9.248-10.781,12.08-20.445
		C643.648,702.135,642.457,692.822,640.883,686.83z M598.359,703.77c-0.449-1.139-0.847-2.313-1.179-3.495l-0.047-0.162l0.121-0.117
		c3.705-3.584,7.965-6.445,12.67-8.5c3.586-1.568,7.379-2.633,11.267-3.174l0.78-0.107l-0.532,0.58
		c-1.072,1.154-2.5,3.103-3.232,5.793c-0.908,3.324-0.311,5.873,0.127,7.734l0.016,0.072c0.023,0.088,0.039,0.155,0.045,0.194
		c0.214,1.49,0.224,3.726-0.957,5.894c-2.102,3.854-6.715,5.309-10.186,4.756c-1.08-0.17-2.707-0.644-4.346-1.912
		C600.635,709.561,599.682,707.133,598.359,703.77z M634.721,719.896c-0.389,2.852-2.016,4.889-4.268,7.715
		c-0.762,0.957-1.582,1.887-2.439,2.766l-0.117,0.121l-0.161-0.045c-4.957-1.414-9.566-3.676-13.697-6.719
		c-3.152-2.328-5.971-5.076-8.379-8.175l-0.486-0.622l0.771,0.174c1.534,0.348,3.936,0.614,6.637-0.097
		c3.369-0.889,5.199-2.623,6.666-4.02l0.078-0.072c1.221-0.973,3.178-2.129,5.668-2.188c2.729-0.066,5.143,1.172,6.879,2.905
		c1.055,1.056,1.861,2.295,2.336,3.535C634.596,716.195,635.004,717.842,634.721,719.896z M639.902,704.053
		c-0.439,3.892-1.41,7.709-2.888,11.342l-0.297,0.732l-0.233-0.756c-0.47-1.504-1.439-3.715-3.402-5.697l0,0
		c-0.021-0.021-0.045-0.045-0.064-0.063c-2.055-2.056-4.159-2.783-5.854-3.373c-0.359-0.123-0.697-0.24-1.017-0.363
		c-1.166-0.447-3.319-1.537-4.711-3.81c-2.289-3.747-1.243-8.471,0.974-11.198c0.688-0.851,1.908-2.023,3.828-2.81
		c2.664-1.088,5.241-0.698,8.812-0.162c1.217,0.187,2.437,0.431,3.619,0.732l0.164,0.041l0.041,0.164
		C640.127,693.832,640.473,698.951,639.902,704.053z"/>
	<path fill="#020202" d="M681.693,243.957c2.037-0.482,3.944-1.592,5.393-3.317c3.578-4.263,3.021-10.618-1.24-14.194
		c-4.264-3.576-10.617-3.02-14.194,1.242c-3.578,4.264-3.021,10.618,1.243,14.195c0.599,0.502,1.242,0.918,1.914,1.257
		c1.183,1.501,1.191,3.672-0.086,5.192c-1.211,1.443-3.198,1.844-4.836,1.111c-0.131-0.125-0.258-0.252-0.395-0.369
		c-4.264-3.576-10.619-3.02-14.195,1.243c-3.578,4.263-3.021,10.618,1.24,14.196c4.264,3.574,10.617,3.018,14.195-1.242
		c1.646-1.963,2.407-4.37,2.344-6.746c0.133-0.559,0.381-1.098,0.774-1.569c1.367-1.628,3.796-1.841,5.423-0.476
		c0.936,0.783,1.391,1.916,1.364,3.047c-0.771,3.539,0.394,7.377,3.361,9.867c4.262,3.58,10.619,3.023,14.197-1.24
		c3.573-4.262,3.02-10.619-1.244-14.193c-3.457-2.9-8.291-3.084-11.9-0.774c-1.258,0.368-2.664,0.134-3.739-0.769
		c-1.709-1.434-1.933-3.98-0.498-5.689C681.074,244.419,681.373,244.165,681.693,243.957z"/>
	<path fill="#020202" d="M654.137,166.066v-8.804h-14.336h-6.963l16.6-16.599l-16.6-16.599h6.963h14.336v-8.804
		c-2.563-0.818-5.293-1.265-8.125-1.265c-14.729,0-26.666,11.938-26.666,26.667c0,14.727,11.938,26.667,26.666,26.667
		C648.844,167.331,651.572,166.885,654.137,166.066z"/>
</g>
</svg>
